/* XPM */
static char *result[] = {
/* columns rows colors chars-per-pixel */
"64 64 252 2 ",
"   c #1E320F",
".  c #352710",
"X  c #373224",
"o  c #491A1E",
"O  c #4F2F16",
"+  c #622A1D",
"@  c #482429",
"#  c #552F2A",
"$  c #4A2933",
"%  c #582D33",
"&  c #59343A",
"*  c #6A312B",
"=  c #663638",
"-  c #6C363B",
";  c #733B3D",
":  c #783938",
">  c #286213",
",  c #31572D",
"<  c #2F6220",
"1  c #4D5629",
"2  c #714930",
"3  c #7A4638",
"4  c #7D6E3E",
"5  c #593745",
"6  c #653B47",
"7  c #713C42",
"8  c #683E51",
"9  c #703F52",
"0  c #5D4249",
"q  c #684848",
"w  c #7B4648",
"e  c #75534E",
"r  c #674655",
"t  c #794A52",
"y  c #775D5A",
"u  c #7B6359",
"i  c #7F6160",
"p  c #AB391A",
"a  c #903826",
"s  c #843D35",
"d  c #A83E29",
"f  c #8A4739",
"g  c #904C30",
"h  c #944738",
"j  c #99573C",
"k  c #AE4B2C",
"l  c #B84625",
"z  c #A64A35",
"x  c #A8563C",
"c  c #BB5637",
"v  c #8A643B",
"b  c #B4653D",
"n  c #C64C26",
"m  c #C85429",
"M  c #D3592A",
"N  c #C65A35",
"B  c #D45D34",
"V  c #D8652E",
"C  c #C8633B",
"Z  c #D76739",
"A  c #DC6B3B",
"S  c #DA7337",
"D  c #E36C37",
"F  c #E97532",
"G  c #EB743D",
"H  c #E7793A",
"J  c #864946",
"K  c #8B494F",
"L  c #86554B",
"P  c #965849",
"I  c #895A56",
"U  c #955B57",
"Y  c #A95943",
"T  c #AA5D4A",
"R  c #976D4F",
"E  c #8A635B",
"W  c #93625D",
"Q  c #99675B",
"!  c #A3684D",
"~  c #BA6847",
"^  c #A56955",
"/  c #B27455",
"(  c #835D61",
")  c #876B69",
"_  c #956562",
"`  c #956A64",
"'  c #9C6C64",
"]  c #9B6D6A",
"[  c #8E716A",
"{  c #99746B",
"}  c #8A7473",
"|  c #977B77",
" . c #A76C63",
".. c #A67769",
"X. c #B47968",
"o. c #A67A73",
"O. c #C86A46",
"+. c #D56C44",
"@. c #C7754A",
"#. c #D77648",
"$. c #DC7D4D",
"%. c #C96D55",
"&. c #C87755",
"*. c #D77B53",
"=. c #E47443",
"-. c #E67845",
";. c #EB7B43",
":. c #E37D4B",
">. c #E5784D",
",. c #EA7C4A",
"<. c #F17D44",
"1. c #C47763",
"2. c #D57A6A",
"3. c #7A9451",
"4. c #EA833C",
"5. c #F3843E",
"6. c #9F924D",
"7. c #B29553",
"8. c #9C8F6C",
"9. c #9C827C",
"0. c #B88569",
"q. c #A98479",
"w. c #BB8373",
"e. c #B78E70",
"r. c #B68A78",
"t. c #D68A56",
"y. c #D88858",
"u. c #E5824C",
"i. c #E98749",
"p. c #F28A47",
"a. c #EC924C",
"s. c #F3944C",
"d. c #E78957",
"f. c #ED8C53",
"g. c #F18C55",
"h. c #ED9453",
"j. c #EC935B",
"k. c #EA9858",
"l. c #F39455",
"z. c #FA9555",
"x. c #F39A54",
"c. c #F39559",
"v. c #F49B5C",
"b. c #C1A75C",
"n. c #EEA35E",
"m. c #F4A25E",
"M. c #FBA35D",
"N. c #F9A75D",
"B. c #C78668",
"V. c #D98966",
"C. c #CB9568",
"Z. c #D89669",
"A. c #C78976",
"S. c #D8867A",
"D. c #C49379",
"F. c #D79878",
"G. c #E89865",
"H. c #EA956E",
"J. c #F29460",
"K. c #F39C62",
"L. c #E6897A",
"P. c #D3AD6D",
"I. c #EEA865",
"U. c #ECA469",
"Y. c #F5A462",
"T. c #F8A563",
"R. c #F5AB65",
"E. c #FAA963",
"W. c #F6A56C",
"Q. c #F5AD6A",
"!. c #F9AD6B",
"~. c #F5B26C",
"^. c #F9B26E",
"/. c #E9A678",
"(. c #F2AD75",
"). c #EEB173",
"_. c #F4B674",
"`. c #F8B573",
"'. c #F5B873",
"]. c #A8C669",
"[. c #E2CB72",
"{. c #9C8682",
"}. c #A48A85",
"|. c #A88B86",
" X c #BB8F80",
".X c #A9918B",
"XX c #B69389",
"oX c #AC9795",
"OX c #B59996",
"+X c #B79B97",
"@X c #BEA78D",
"#X c #BDA29E",
"$X c #BBA6A3",
"%X c #C69B86",
"&X c #D59585",
"*X c #EC8685",
"=X c #ED8A84",
"-X c #ED8B8B",
";X c #ED9183",
":X c #CEA488",
">X c #D6AA8B",
",X c #C5A598",
"<X c #DAAE94",
"1X c #D4B195",
"2X c #D9B497",
"3X c #E9AC86",
"4X c #E8B68A",
"5X c #E6BB95",
"6X c #C6A7A4",
"7X c #CBADAA",
"8X c #C4B1AF",
"9X c #CCB1AD",
"0X c #D6B6AA",
"qX c #CBB5B2",
"wX c #D4B5B2",
"eX c #D6B9B6",
"rX c #DCBBB7",
"tX c #D6BCB9",
"yX c #DDBDB9",
"uX c #E6BFA5",
"iX c #E0BEBB",
"pX c #DEDD99",
"aX c #EDC299",
"sX c #F0C991",
"dX c #DBD7A5",
"fX c #D8C5B9",
"gX c #DFC1BD",
"hX c #E8C4A7",
"jX c #F6CAA9",
"kX c #E8CDB4",
"lX c #E1C1BE",
"zX c #F0D4B2",
"xX c #F5D8B9",
"cX c #F7EDA7",
"vX c #F8E5BA",
"bX c #DEC8C5",
"nX c #E2C5C2",
"mX c #E4CAC6",
"MX c #E6CDCA",
"NX c #E8CECB",
"BX c #E9D1C2",
"VX c #E7D0CD",
"CX c #E9D1CD",
"ZX c #F7DCC1",
"AX c #E7D4D0",
"SX c #EAD5D2",
"DX c #EDD9D6",
"FX c #EEDDDA",
"GX c #F9E7C8",
"HX c #F3E4DB",
"JX c #FBF5D9",
"KX c #EEE2E1",
/* pixels */
"NXmXmXmXmXnXmXSXHXmXlXMXlXnX9X$XoXoX$XgXnXMXmXVXDXSXNXnXmXmXmXmXKXNXmXNXnXmXMXMXHXMXMXMXlXVXmXCXDXCXVXMXlXlXlXSXFXDXlXlXCXlXSXlX",
"mXnXlXlXlXiXnXmXFXnXlX8X9.R / t.y.y.&.Q | 9XyXmXAXNXlXlXlXlXlXnXFXmXlXlXlXlXlXMXDXnXlXlXlXlXlXMXNXMXlXlXlXlXlXlXSXVXlXlXlXlXlXlX",
"nXlXlXiXyXyXiXmXDXeX| ^ Z.G.x.p.i.p.p.f.y.! }.lXNXMXlXlXiXeX+XeXDXnXlXiXlXrXiXlXDXlXlXiXgXlXiXnXMXMXlXlXlXlXlXiXVXlXlXlXlXlXlXlX",
"lXiXiXyXyXyXyXmXbXE Z.K.v.l.a.H G G <.<.p.d.@.|.MXnXyXyXiX#X9XoXqXlXlXyXrXlXlXlXCXlXrXgXrXrXrXlXMXlXlXrXrXrXrXiXCXCXlXlXiXlXlXlX",
"nXlXyXyXrXyXyXtX[ Z.v.c.z.z.,.A A D ,.<.<.<.u.^ bXlXyXyXyXOX X%X0X{.0XiXrXrXrXlXSXlXlXrXrXrXlXmXCXlXgXrXrXgXwXOXbXlXyXrXlXyXiXyX",
"lXlXyXrXrXyXrX| V.x.l.z.;.Z n n n n m D D D A O.tXmXyXyXrXXX2.&X0.hX}.+XrXrXlXlXCXlXgXrXrXrXgXlXlXNXyXgXeX+X|.q.tXlXyXrXlXeXyXyX",
"lXlXrXrXrXrX,X/ c.s.p.A l d k d d d d m M M N ! bXnXyXyXyXq.S.-X*X1.uX,XOXiXlXlXCXlXgXrXrXrXlXlXNXlXlX9Xq.F.B.o.wXAXyXyXyXlXyXyX",
"mXlXlXlXlXlX} G.a.p.A l l d f q.qXwX7Xo.k c z #XNXmXlXiXyXo.2.-X-XL.X.5X0X.XyXlXSXlXlXlXlXlXlXmXCXMX+X0./.H.2.q.bXSXyXnXyXyXnXyX",
"VXVXMXlXMXtX^ j.p.A l l k L qXDXFXCXVXMXwX7XtXSXDXDXMXNXmX..S.*X-X-XL.1.5X2X|.MXFXmXmXbXfXlXCXDXbX{.C.(.H.2.&Xo.FXDXVXlXSXiXSXVX",
"lXlXlXlXnXXXB.p.-.m l l f ,XgXMXVXnXyXnXgXyXfXnXNXmXlXlXyX{ S.*X*X-X=X*X%.4X5X{ [ R j P ! v { { ' 3X(.j.2.L.S.{ DXgXlXlXlXnXlXlX",
"lXlXrXgXgX[ y.,.M p p a }.iXlXMXCXnXgXrXyXyXyXMXMXmXlXgXeX' *X*X-X-X-X=XL.&.4X3XC.C p.H V V S S C @.~ &.2.=X&X] AXnXiXlXrXlXlXlX",
"lXlXgXrXrX` d.;.m p p * 7XeXlXMXCXlXrXrXyXyXyXlXMXmXrXrXeX..L.*X*X-X=X-X;XL.Z._.'.).i.4.5.V F 4.V S #.~ V.S.&X{.MXVXlXlXgXlXlXlX",
"MXlXlXiXeXP $.;.G A l J wXrXiXiXMXlXgXgXrXrXgXnXMXMXrXgXrX..S.*X*X*X;X;X;X3X_.'.'.'._.k.i.p.4.4.5.S 4.a.@.&.S..XSXlXrXgXrXrXrXlX",
"lXlXyXrXwXU S D G G -.I rXrXiXNXMXgXrXrXrXrXrXnXMXlXrXrXyXq.2.*XL.L.H.3X`.`.`.'.'.'.'.'.a.x.k.4.N.x.4.a.x.@.X.OXlXlXgXrXrXrXrXrX",
"lXgXrXrXrXP Z V M V +.E rXlXiXlXVXgXrXrXgXrXrXlXVXlXrXrXlXr.A.=XH.;X`.`.`.'.'.'.'.'.'.'.N.a.N.a.n.N.4.n.x.a.b OXSXlXlXyXrXrXlXrX",
"lXlXlXlXrXW Z M m n c ) yXiXnXCXAXnXgXgXgXlXgXMXCXMXgXlXlXOXA.;X(.(.`.`.`.'.^.'.'.'._._.R.a.~.m.n.I.k.n.n.a.t.{ DXDXlXgXgXgXlXlX",
"MXmXlXMXlX` +.B M B N ) nXiXlXDXDXNXlXlXMXVXlXSXSXCXmXnXnX6XA.(._.~.!.`.^.^.^.~.~.'.'.~.~.m.~.R.I.R.I.n.n.i.t.e DXDXlXlXlXMXlXMX",
"MXMXlXlXMX{ :.;.<.G Z I mXMXlXSXSXNXlXlXlXlXlXAXCXVXmXnXnX}.3 G.W.!.`.^.^.^.Q.n.C.C.C.U.~.R.~.~.~.R.~.n.t.g + & bXDXlXgXVXlXlXMX",
"lXlXlXgXyX}.*.;.G 5.=.P eXgXyXMXVXlXlXgXgXgXlXlXmXmXiXiXOXY O.G.W.^.!.^.~.I.j O . . . . v Z.'.~.~.R.I.Z.2 . u e fXVXgXgXrXgXlXlX",
"lXlXlXgXyX6X~ ;.<.G =.x 7XgXlXlXVXlXlXgXgXgXlXlXNXNXeX+Xh +.J.W.!.!.^.^.Q.W.2 8.pXpX3.    O Z.I.R.R.I.R   O ].R #XVXgXgXrXgXgXlX",
"lXyXlXrXrXwXP -.=.=.=.C |.rXgXMXlXlXrXrXgXrXrXlXmXmXrXI a O.j.E.R.~.!.!.~.!.t.C.cXcX].> ,   R /.I.n.U.# , 1 P.6.}.MXrXgXrXyXgXyX",
"lXlXrXrXrXiXo.N n m B >.P wXgXMXNXlXlXrXrXgXlXlXNXnXrXI Y *.j.!.R.~.!.!.~.~.U.g sXpX].> < , O P.n.n.t.X 1 4 [.v } yXrXrXrXyXrXgX",
"lXlXrXrXtXlX6Xd l B -.-.O.|.bXyXlXlXgXrXrXrXgXlXmXnXiX+XU %.J.E.!.W.!.!.!.R.~.t.b [.].> < 6.2 7.x.n.t.O 4 P.b.3 E gXrXrXrXwXrXrX",
"lXlXrXrXyXtXtX] B =.-.;.>.P 7XmXAXlXrXrXrXrXrXlXNXnXyXrXr.b d.K.T.E.E.!.~.~.~.~.t.v 7.6.6.b.v g C b j 2 4 v E :X' OXyXeXrXeXrXrX",
"NXMXlXMXMXmXmXwXY =.-.;.u.>.` bXDXMXgXMXNXiXNXSXSXNXlXNXyX^ +.=.u.i.f.c.Y.!.Q.Q.(./.B./ 8.q.XXr.c L.jX&X>X<XuX<X2 oXmXbXlXmXmXAX",
"VXNXMXMXmXiXmXVX.X#.,.;.<.,.*.{ MXMXVXgXwX7X+XXX,X,X7XmXmX} N B D +.D =.+.-.d.j.v.K.I.U.aXvXJXJX<XC #.+.uX5X3X0.2 $XtXtXmXmXVXlX",
"lXlXlXyXiXyXnXNXmXQ #.-.,.,.u.&.{ 7X$Xq.7.y.d.i.;.i.>.1.XX[ : N A A A =.D A Z C C C &.>XzXxXJXJXZXB.x F.jXjXD.! & oXqXeXyXyXlXyX",
"lXlXlXlXrXnXiXlXDX,XP #.;.,.;.:.#.! 0.U.N.x.4.5.5.G G #.$.~ f h m B Z Z A Z Z C C +.Z.2XzXGXJXGXZXuX! jXcXsXaXC.e bXtXqXeXyXyXbX",
"lXlXyXyXyXrXlXlXDXgX+XP #.=.=.=.i.I.Q.E.a.s.z.s.5.H 5.s.i.#.x g k c N B B N C N c %.F.jXxXxXZXzXuX0.! A.aX5X<X{ +XmXrXyXwXeXyXiX",
"lXlXrXrXrXrXlXlXDXgXlX,XL O.A #.n.R.N.s.l.M.M.p.s.M.N.s.4.H +.b 2 h z x z z h f P P 0.<X0X1X%XX.^ X.A./ f ^ Q y bXyXrXyXeXwXyXnX",
"lXyXbXrXrXrXrXlXAXrXrXrX7X' O.Y.R.R.x.s.M.M.s.x.E.E.N.s.4.4.S C x f 3 f h g f P U _ ^ U P W ^ X.A.A.F.A.0.' q 7XAXMXeXyXrXrXrXrX",
"lXlXrXrXrXrXrXiXAXnXrXrXiX6XZ.Y.R.N.s.E.E.x.h.R.!.E.~.R.N.a.D C x v 3 3 J J J U U W U U Q Q ..X.X.w.0.X.E q 6XnXNXMXyXrXrXrXrXrX",
"VXVXVXVXNXNXNXSXKXVXVXNXMX@X/.N.N.x.M.E.M.a.Y.Q.R.~.~.~.~.x.p.#.O.B./ Q ' W U U U W I I I L L L U E L 0 } wXAXAXFXHXNXlXSXSXNXVX",
"mXnXnXnXnXnXnXNXDXnXnXnXeX0.I.m.m.x.M.E.h.x.E.R.E.E.R.~.Y.E.Y.k.:.O.0. .' ' _ _ _ W _ W W ( ( t t = # #XyXnXiXnXSXAXnXiXlXlXiXnX",
"nXlXyXyXrXyXiXmXDXyXyXyXoXC.Y.R.E.m.N.M.h.m.E.R.~.R.~.E.R.E.E.Y.v.$.~ :X:X..' ] ` ` ` ` _ _ _ _ _ E e qXyXlXgXiXNXSXnXlXnXyXnXiX",
"nXlXyXyXyXyXiXmXSXnXyXeX{ /.m.N.E.T.T.v.l.M.E.R.R.R.E.~.R.Y.R.Y.E.K.y.~ 4X<Xo...' ] ] ` ] _ ` _ ) E i {.rXrXyXnXSXiXiXlXrXnXiXlX",
"nXiXyXyXyXiXrXmXDXyXyXwX..Y.m.n.Y.T.E.v.x.T.T.T.R.R.R.E.k.n.Y.Y.T.Y.x.y.3X5X>Xo...{ ..] ] ] ] ] ` ` ) y eXrXrXiXSXlXgXrXrXyXyXlX",
"nXiXyXrXrXyXyXnXDXyXyX+X0.U.Y.m.Y.T.E.m.v.Y.Y.Y.R.Y.R.K.u.m.m.R.Y.Y.m.K.F.sX5X%Xq.o.o.o.o.o.o.] ] ] I q OXrXyXgXVXlXrXgXrXrXrXyX",
"nXrXrXrXrXrXrXnXCXiXyX}.Z.n.K.m.v.Y.Y.Y.m.Y.Y.Y.T.Y.T.G.y.T.m.Y.T.Y.T.T./.aX5X5X%X%X%Xr.o.o.o.o.] ] I } eXyXyXgXVXlXrXrXyXgXrXrX",
"nXlXlXlXlXyXnXNXDXlXiX| G.v.v.v.v.k.Y.E.m.m.v.K.Y.m.Y.G.y.v.m.Y.Y.Y.T.E.U.aX5X5X<X>X&X%X%X%XX.o...` e y eXiXiXlXDXDXgXgXgXlXlXiX",
"VXCXNXNXNXCXNXCXHXNXMX{ U.v.v.x.v.v.h.Y.m.x.v.Y.Y.v.Y.G.@.m.m.Y.Y.Y.Y.T.W.sX5X5X1X>X:XD.A. Xo.o.W W } eXDXlXlXlXDXDXlXlXVXlXSXlX",
"mXlXlXlXgXrXlXMXDXlXrX..G.c.v.c.c.v.h.d.m.k.c.v.m.v.K.K.@.v.v.m.Y.Y.m.Y.R.4X5X4X<X>XD.D.%Xw.X. .J t .XlXlXlXlXlXCXCXgXlXlXlXlXlX",
"mXlXrXlXrXlXyXmXDXiXfX..j.c.c.c.c.c.z.f.d.f.f.v.v.v.v.K.u.k.v.v.v.Y.m.Y.U.3X2X4X>Xr.e.A.1... .L w 2 9XgXlXlXrXlXCXCXlXlXlXlXlXlX",
"mXiXiXrXyXrXiXmXDXfXwX..d.l.l.l.l.l.c.g.C *.u.f.l.c.v.J.t.a.x.v.v.m.v.m.K./.>X:Xw.X.X.X.Q  .P J 6 .XgXlXlXlXrXlXCXCXlXlXlXlXlXlX",
"mXlXrXiXrXyXiXmXDXgXwX^ u.g.g.g.g.g.g.j.~ x +.:.g.f.l.j.#.f.c.v.v.M.v.v.J.B.0.W ' ..' L U P f w } tXlXlXrXrXgXlXCXlXlXeXlXgXrXlX",
"nXlXrXrXrXyXrXnXDXrX|.0.$.g.g.f.g.f.g.g.~ f T +.:.f.u.f.C u.c.l.x.v.v.J.y.f L I U I J K K J w 7 $XSXlXlXlXrXrXlXlXlXrXyXrXrXrXrX",
"iXrXrXrXrXrXyXnXCX|.5XZ.*.u.g.g.p.f.g.d.T s f Y +.$.i.#.@.#.f.c.c.v.z.v.*.a w w 7 w K w J J : w 9XlXlXlXrXrXlXlXDXlXlXyXrXrXrXgX",
"lXlXrXrXrXrXyXnX$XF.U.V.d.+.,.i.i.u.u.y.f : 7 s Y O.#.#.C b d.l.c.c.v.c.y.* q ; 7 J w J J s : K bXlXrXyXrXrXlXlXCXDXrXrXrXrXrXrX",
"CXnXnXnXnXgXnXbX .y.g.d.V.C +.,.;.,.:.O.* ; 7 : s Y Y N c z *.c.l.c.c.c.d.s - 7 7 s J s s : K ( VXVXlXlXnXiXnXiXDXAXiXnXiXnXiXnX",
"CXCXNXNXNXNXMX$X&.V ,.g.$.#.N Z +.#.O.j * - ; 7 : : h Y c a @.f.c.l.x.c.j.j = - 7 w s : - K U ) SXDXlXVXVXiXSXNXHXDXAXnXAXNXAXAX",
"MXlXrXyXyXyXrX| y.A =.,.+.*.C N N c x + % ; ; - - - - a s a @.:.c.l.c.c.j.~ * - : : + % : K I [ VXVXlXlXiXyXyXnXNXNXnXgXyXiXiXlX",
"lXlXyXyXyXyX0X,XF.#.B +.%.O.@.Y x h * % - - - - - 6 % o * : Y *.g.l.l.c.j.y.# * o o % 8 K K K | nXlXlXlXrXyXiXiXNXNXiXlXyXbXiXlX",
"nXlXrXrXrXgXOX0X<XA.T s J h P P * % % 6 6 - = % @ o } oX6X.X3 *.f.s.c.c.j.V.+ @ @ % 9 9 9 K h }.SXlXiXyXyXrXrXiXSXlXyXiXlXrXgXrX",
"nXrXgXrXrXrX}.dXhXw.` I ,X+X.X+XqXeX) @ % % @ @ 5 5 r ) 7XrX| @.:.l.a.c.j.j.* & $ 6 9 J K P T .XNXNXyXiXyXrXrXnXSXlXrXrXrXrXrXgX",
"lXrXgXrXrXrX9.fXZXXX' I ) wXyXmXNXrXoX& 5 = % $ 5 9 9 8 | yX7XP #.g.l.l.c.j.: 6 @ 6 t w K %.! OXlXlXlXyXyXrXrXiXNXlXyXrXrXrXrXrX",
"lXlXrXrXrXrX| kXxXuXr.%XI |.yXmXNXlX7X5 6 6 6 = $ 5 8 6 | eXyX| &.i.c.c.g.j.2 6 $ 8 t K P 2.^ 6XCXNXlXlXyXrXrXrXVXAXrXrXrXrXrXgX",
"MXMXmXmXmXbX9.kXxXuX%X2X:X) mXSXDXMXmX$Xq 6 8 8 $ 5 5 5 $XlXmX8X%.#.j.c.j.J.3 q $ r t K ~ 2.P 6XbXbXbXfXlXCXlXlXDXDXlXVXlXVXlXCX",
"MXMXmXmXmXbX9.hXkXZXuX>X<X) MXSXSXNXmXmX8X| i ) } | {.OXnXNXnXrX^ +.j.d.y.1.{ q $ 8 t U 1.F.:X:X7XXX9.eXVXlXlXlXDXSXlXlXVXlXSXlX",
"mXlXlXiXgXyX| 1XxXBXkX>X&X[ tXMXVXnXnXyXbXyXrXnXMXMXlXlXlXlXlXlXq.&.3XzXxXhXxXBX) r r I uXxXGXvXvXGX,X}.lXlXlXlXVXCXlXlXlXlXlXlX",
"nXgXyXrXyXyX#Xq.hXkXuX%X` oXlXMXVXiXyXyXyXrXyXnXMXmXyXyXyXyXrXiXoX>XzXGXGXxXGXGX,Xr r t <XGXGXvXzXGXhXq.gXlXrXlXCXNXlXlXgXgXgXlX",
"nXgXiXrXyXyXyX#X}.{ E e {.rXyXMXAXiXyXgXyXyXyXmXMXmXyXyXgXrXgXiX8Xr.jXGXGXZXhXZX,X5 0 r q.dXvXhX>XxX:X| gXrXrXgXDXlXrXgXgXrXgXrX",
"lXiXyXrXrXyXrXmXVXwX0XeXyXyXyXmXMXiXyXyXyXyXyXnXmXmXyXyXrXrXyXyXbX[ >XkXkXuXe.:X) 5 8 r I r.:X..8.D.u #XrXrXrXgXCXlXrXrXrXrXrXgX",
"gXiXrXrXyXrXyXnXSXgXeXyXyXyXyXmXmXnXrXyXrXrXyXnXmXnXyXrXrXrXyXlXDX.XL { ..w w E .X$XoX| } i i i ) q.,XeXyXrXlXlXlXCXrXrXrXrXrXrX",
"lXyXyXrXyXyXyXnXSXyXrXyXrXyXyXmXmXiXyXrXyXyXyXnXmXnXyXrXrXyXrXgXDXgXwX#XOX#X7XyXlXlXyXyXnXeXiXyXbXlXlXrXgXgXlXgXDXlXlXrXrXrXrXgX"
};
