/* XPM */
static char *result[] = {
/* columns rows colors chars-per-pixel */
"64 64 223 2 ",
"   c #240D1E",
".  c #3A1316",
"X  c #3C141A",
"o  c #1E1228",
"O  c #241426",
"+  c #3A1B22",
"@  c #231D34",
"#  c #362532",
"$  c #431619",
"%  c #4A1718",
"&  c #441A1C",
"*  c #4C1B1C",
"=  c #521C1A",
"-  c #591D1A",
";  c #4F211C",
":  c #50201E",
">  c #5B221D",
",  c #63251C",
"<  c #6B261D",
"1  c #792B1D",
"2  c #491C21",
"3  c #511E21",
"4  c #472328",
"5  c #572423",
"6  c #462B36",
"7  c #542C31",
"8  c #4D343B",
"9  c #56373B",
"0  c #652A23",
"q  c #642825",
"w  c #6C2B23",
"e  c #772B21",
"r  c #732D23",
"t  c #6C3228",
"y  c #7D3324",
"u  c #783528",
"i  c #663636",
"p  c #75453C",
"a  c #2D344D",
"s  c #4E3842",
"d  c #543B43",
"f  c #573B45",
"g  c #643F44",
"h  c #35435C",
"j  c #5C4247",
"k  c #5B434A",
"l  c #5F4950",
"z  c #62474D",
"x  c #784E48",
"c  c #634C52",
"v  c #6D5354",
"b  c #795B5A",
"n  c #716368",
"m  c #89311E",
"M  c #873926",
"N  c #953C24",
"B  c #89432B",
"V  c #9B442A",
"C  c #98462B",
"Z  c #8B4D39",
"A  c #974A39",
"S  c #A34526",
"D  c #A54929",
"F  c #AC4B2A",
"G  c #B14E2C",
"H  c #AC532D",
"J  c #B5532C",
"K  c #BB572E",
"L  c #A34B30",
"P  c #A85835",
"I  c #B45835",
"U  c #B45B34",
"Y  c #BA5C33",
"T  c #A7613D",
"R  c #BC6234",
"E  c #BA643B",
"W  c #C55A2E",
"Q  c #C15D33",
"!  c #C36334",
"~  c #CA6635",
"^  c #CE6B36",
"/  c #C46639",
"(  c #C46B3B",
")  c #CB6C3C",
"_  c #D46C36",
"`  c #CC723E",
"'  c #D2733C",
"]  c #D8763B",
"[  c #E27C3A",
"{  c #90514B",
"}  c #98594B",
"|  c #A44D48",
" . c #A6594B",
".. c #A85B54",
"X. c #9A614D",
"o. c #83615D",
"O. c #9B695A",
"+. c #AA6548",
"@. c #B86845",
"#. c #AA6756",
"$. c #B26A58",
"%. c #B27252",
"&. c #BA7A58",
"*. c #856A69",
"=. c #95726B",
"-. c #93746F",
";. c #B76E67",
":. c #A87566",
">. c #A5756F",
",. c #B97866",
"<. c #BD746B",
"1. c #B87A71",
"2. c #CC7442",
"3. c #C6734D",
"4. c #C8784B",
"5. c #D27543",
"6. c #D47A43",
"7. c #DB7E43",
"8. c #D37D4B",
"9. c #E27E42",
"0. c #C2786B",
"q. c #C57D73",
"w. c #BC805A",
"e. c #BB866A",
"r. c #A9837B",
"t. c #B68777",
"y. c #BA917E",
"u. c #CD814C",
"i. c #DC8246",
"p. c #D7844A",
"a. c #DC8449",
"s. c #DE894D",
"d. c #CA8557",
"f. c #D98A55",
"g. c #DD935A",
"h. c #E58848",
"j. c #E48B4C",
"k. c #E9934D",
"l. c #F19149",
"z. c #E28E51",
"x. c #EA9553",
"c. c #ED9A55",
"v. c #E49658",
"b. c #ED9D59",
"n. c #F09552",
"m. c #F19D59",
"M. c #EDA45B",
"N. c #F2A45D",
"B. c #F4A95E",
"V. c #C68766",
"C. c #D69568",
"Z. c #D4946E",
"A. c #C98375",
"S. c #C88677",
"D. c #CC857A",
"F. c #D18D7D",
"G. c #C49678",
"H. c #E59C65",
"J. c #DBA56F",
"K. c #EAA766",
"L. c #F4AB63",
"P. c #F4A864",
"I. c #ECB16F",
"U. c #F6B36B",
"Y. c #F7B468",
"T. c #F9B46A",
"R. c #F9BA6C",
"E. c #EAA973",
"W. c #F3B576",
"Q. c #F9BD72",
"!. c #F9C376",
"~. c #F7C779",
"^. c #FACB7D",
"/. c #9B8583",
"(. c #A78B88",
"). c #B38E84",
"_. c #AB918E",
"`. c #B89787",
"'. c #AB9391",
"]. c #B69A96",
"[. c #BA9D99",
"{. c #BFA084",
"}. c #B5A09F",
"|. c #BDA19C",
" X c #BCA7A4",
".X c #D38E81",
"XX c #C3988A",
"oX c #C29D93",
"OX c #C6A485",
"+X c #DBAC82",
"@X c #C2A39C",
"#X c #E9B681",
"$X c #C3A6A2",
"%X c #C5A9A4",
"&X c #C7ACA8",
"*X c #CCAEAA",
"=X c #CEB1AD",
"-X c #D2B2AE",
";X c #CBB6B4",
":X c #D4B5B2",
">X c #D5BBB7",
",X c #DCBBB7",
"<X c #DDBDB9",
"1X c #E0BEBB",
"2X c #F8CA82",
"3X c #FBD487",
"4X c #D6C1BE",
"5X c #DFC1BD",
"6X c #E1C1BE",
"7X c #DDC5C1",
"8X c #DBC8C5",
"9X c #E2C5C2",
"0X c #E4CAC6",
"qX c #E6CDCA",
"wX c #E8CECB",
"eX c #E7D0CD",
"rX c #E9D1CD",
"tX c #E7D4D0",
"yX c #EAD5D2",
"uX c #EDD9D6",
"iX c #EEDDDA",
"pX c #F0E1DD",
"aX c #EEE2E1",
/* pixels */
"wX0X0X0X0X9X0XyXpX0X6XqX6XwXwXyXuXqX0XqX9XqX0X,Xe.e.%X4X0X0X0X0XpXrX0XqX9X0XqXqXpX0XqXqX9XqX0XrXyX4X`.`.,X6X6XyXiXuX9X1XwX9XyX1X",
"0X9X6X6X6X6X9X0XpX6X6X6X6X6X6XrXrX9X6X6X6X6X6X@X+.+.V.y.%X5X6X9XiX0X6X6X6X6X6XqXuX9X6X6X6X6X6X4X$Xy.e.:.-X6X6X6XyXrX1X9X9X1X6X6X",
"9X6X6X1X<X<X1X0XuX6X1X1X,X6X6XwXrX9X<X<X6X1X<Xr.@.| +.Z.XX].<X6XuX9X6X6X6X,X<X6XyX9X6X<X<X1X*X`.+X$.A ..@X1X1X9XrX9X1X1X6X6X6X6X",
"6X1X1X<X<X<X<X0XuX1X1X1X,X,X6XqXwX9X<X<X<X<X,X:.$...| &.E.J.{.>XuX9X6X<X,X6X6X6XyX6X<X<X<X%XOX#XZ.| | $.).,X,X1XrXrX1X9X5X6X6X6X",
"9X6X<X<X,X<X<X9XyX6X5X,X,X6X,X6XwX6X<X<X,X,X=X,.q.0...| d.W.J.OX8X6X<X<X,X,X,X6XyX6X6X<X@XOXI.E.#.} 0.<.t.<X,X9XyX6X5X,X5X,X6X,X",
"6X6X<X,X,X<X<X9XyX,X,X,X,X,X6XwXqX5X<X,X,X,X@X,.A.F.0.| A E.I.E.OX-X<X1X,X:X*X:XrX5X<X|.OXI.W.Z.| 0.S.0.1.>X1X9XrX6X,X,X5X,X,X,X",
"6X6X,X,X,X,X<X9XyX5X,X,X,X6X6X6XqX5X,X,X,X,X[.0.F.F.F.0.| +.W.N.E.`.:X,X@XO.#.%XqX5X%XG.P.B.W.+.;.S.S.q.t.:X,X1X6XyX,X,X,X5X5X,X",
"0X6X6X6X6X6X6XqXyX6X6X6X6X6X6XrXrX9X6X6X6X6X[.V.F.F.F.D.0...C.P.c.J.`._.#.( 0.XX].].`.K.B.U.V.$.S.S.D.q.t.,X1X1XyXyX5X5X6X5X5X5X",
"rXrXqX6XqXqXrXyXpXqX6XqXwXqXqXuXiXtXqXqXqXqX$Xq..X.X.Xq.<...%.P.M.v.J.w.^ ] ] ^ E g.d.c.B.U.$.;.q.D.D.A.S.:X6X6XpXuXrX6XyX6XyXrX",
"6X6X6X6X6X5X6XqXuX6X6X6X6X6X6XqXqX9X<X9X1X<X[.V..X.X.Xq.0...A H.B.B.R.u.[ l.[ [ ] i.x.l.N.C.} ..1.D.D.A.e.:X6X6XuX6X6X6X6X6X6X6X",
"6X6X,X6X5X,X6X6XuX6X6X5X,X1X6XqXrX9X<X<X<X<X|.<.F.F.q.0.$...@.g.Y.~.3Xi.k.B.k.v.[ h.Y.M.N.d.| ;.<.q.S.A.1.,X5X5XyX6X6X6X,X5X6X6X",
"6X6X5X,X,X6X6X0XuX6X,X1X6X,X6XqXwX9X<X<X<X<X&X,.q.D.0...{  .g.K.!.3X3Xv.M.!.M.~.k.x.!.T.P.f. .{ ..<.0.A.1.5X,X5XrXrX6X6X5X6X6X6X",
"qX6X6X6X,X,X5X6XrX5X,X,X,X,X1X6XqX9X<X<X,X,X:X:.q.0.0.| +.g.P.Q.^.3X3XI.M.!.M.3X!.M.^.~.U.N.g.%...<.0.q.r.,X,X6XyX6X,X5X,X,X,X6X",
"6X6X,X,X,X5X,X6XyX,X5X5X,X,X6XqXqX6X<X,X,X,X,Xr.0.0.$.+.g.b.U.!.^.^.3X~.k.B.M.3X3X~.~.!.T.L.m.f.$.#.0.;.].5X,X1X6X6X6X,X,X,X,X,X",
"6X5X,X,X5X,X5X6XyX5X,X,X,X5X5X6XqX5X<X,X,X<X<X X..$. .g.b.P.T.Q.~.^.3X^.c.l.x.~.~.~.~.Q.T.U.N.v.f.#. .#.=X5X6X6XyX6X5X,X,X,X6X,X",
"6X6X5X6X5X5X6XeXyX5X5X5X6X5X6XrXtX9X5X5X5X6X5X5X=.{ d.b.m.P.T.Q.!.~.~.^.M.h.k.~.~.!.!.R.U.L.N.c.z.d.} >.,X6X6X6XuXuX6X5X5X5X6X6X",
"0X0X6XeX6X6XeXrXpX6X6X6XqX6X6XuXuXrX6X6XqXrX6XtX X{ H.c.m.L.T.T.Q.!.!.!.R.h.h.U.!.R.R.U.U.P.m.b.z.8.:.].6X6X6X6XpXuX9X1X6XqX1XwX",
"0XeX6X6X0X6X6XrXpX6XeX6XqXqX6XrXrXeX6X6X6X6X6XtX=XG.z.b.b.L.T.T.R.Q.R.R.!.M.i.Y.U.U.U.L.P.P.m.c.j.h.V.@X6X1X6XyXuXuX1X9XwX9X6XqX",
"6X6X6X6X5X5X6XeXyX6X6X,X5X5X,XrXrX6X6X5X5X5X6X6X XZ.z.m.b.N.L.T.T.T.T.T.Y.Y.L.Y.Y.L.b.P.N.b.b.x.z.j.3.oX,X,X,X6XwXrX6X1X,X1X6X6X",
"6X6X6X6X,X6X6X5XyX6X,X5X5X5X6X6XrX5X5X5X5X5X6X5X$X8.j.n.k.M.B.B.x.x.L.L.B.B.B.B.B.N.a.a.x.c.x.x.z.a.8.t.>X,X,X6XrXwX6X6X,X7X<X6X",
"6X,X6X,X,X,X5X6XyX6X,X,X5X,X6XqX6X6X,X,X5X,X,X,X`.3.h.z.k.c.b.k.~ j.P.N.N.N.N.N.M.M.a.Q ' x.k.j.h.a.5.,.=X,X,X6XwXwX,X1X,X,X9X,X",
"6X6X,X,X,X5X6X6XyX5X6X,X,X,X5XqXeX6X5X,X,X5X5X-Xt.5.7.h.k.k.i.W W 7.b.m.m.m.c.c.c.k.6.Q K ! i.h.a.7.2.$.*X>X,X1XrX9X,X,X,X,X,X<X",
"6X6X,X,X,X5X5X6XtX5X,X,X,X,X5X6X6X6X5X,X,X$XoXXXw.2.~ ] 6.) J J K ) x.x.c.x.x.x.x.j.~ K J J J ! 5.2.Q @.e.XX$X,XwXqX,X,X,X,X,X,X",
"6X6X,X,X,X,X5X6XrX,X,X,X,X,X6X0XrX6X,X,X,X|.O.%.3.I S F F F F G G J h.j.j.j.j.a.a.6.K J J K H F F F S V A O.@X,XrX0X9X,X,X,X,X,X",
"rXqX6XqXrX0X0XrXpX0X0X0X0X0XqXyXuXqX5XeXqX6X5X-.0 1 m N S F R U F S ( 6.i.i.i.i.J F G G Y 6.` H V N M t *.<XrX6XuXyXqXqX1X0X0XwX",
"rX0XqXqX0X6X0XrXpX0X0X0X6X6X0XyXuXeXeX5X6X6XqX4X*.M m V H R ` E L N N Q ] ' ' ' J M V F / ' ( R H Z B O.4XwX6X6XuXuX9X6XwX0XwX9X",
"6X5X6X5X6X,X6XrXrX6X5X5X,X5X6XrXeX5X5X5X5X,X6X5X}.B y B C R R P V m e N ( ^ ! R V 1 < V H R H M 1 < 5 r.<X5X,X6XrXrX7X9X5X,X<X7X",
"6X6X5X5X,X6X6X6XuX,X,X5X5X,X5XrXeX5X5X5X,X5X5X6X4Xo.w A T C y M y w w < L ( R C M 1 < , N M B P C B x %X5X5X5X6XwXrX1X<X,X6X5X1X",
"6X6X5X,X,X,X6X6XuX5X,X,X,X5X6X6X0X6X,X,X,X5X<X<X0X%Xp p r r w w > > > - , P U r e 1 - - , y r w u p '.6X,X,X,X6XrXwX,X5X,X,X,X5X",
"6X6X,X,X,X,X6X6XyX5X6X,X,X,X5XeXeX6X5X,X,X,X4X5X0XeX_.7 w , 0 ; % = % ; % y C ; - , - % % 0 w q 0 /.4X5X,X,X>X<XrX6X,X<X,X,X,X5X",
"6X5X5X,X,X,X,X6XyX,X,X,X,X,X,X0X6X6X5X,X,X,X,X6X0X0X4X(.p 0 0 ; % % % % % % > ; - = % % % q t p r.:X,X,X,X,X,X6XwXwX,X,X,X,X,X,X",
"6X6X,X,X,X,X,X6XyX6X,X,X,X5X,X6XrX5X5X5X,X,X,X6XeX5X,X,X_.b 9 0 ; % $ $ $ . % % % % $ % 3 i b '.4X6X,X,X6X,X,X6XwXqX6X,X,X,X,X,X",
"wXrXrXrXwXwXwXyXaXrXrXrXeXrXrXuXpXrX0X0XwXwXrXyXuXuXwXqX8X4X/.8 & & . & X & % % X $ X . v (.7XtXuXuX7XyX6X6XyXyXpXpXrX9XyXyXrXwX",
"0X9X9X9X9X9X9XqXuX9X9X9X9X9X9XrXrX0X6X6X6X6X6XwXrXeX5X6X4X4X/.# o o O O O O O O   o   O *.<X1X1XtXwX6X6X6X6X6X6XyXrX6X6X1X6X1X9X",
"9X5X<X<X,X<X1X0XuX<X<X<X<X<X6XwXrX0X,X6X6X6X6X0XqX0X,X6X5X:Xn @ @ a a a h h h a a @ @ O n =X9X9X9XeX6X6X5X5X5X6XrXyX6X6X5X5X9X1X",
"9X6X<X<X<X<X1X0XuX5X<X<X,X<X,XqXqX6X6X,X6X,X6X6XqX0X5X5X,X:X-.Z p j a h h h h h a a # O n >X9X5XtX1X9X<X,X,X,X6XrX6X6X6X,X5X5X6X",
"9X1X<X<X<X<X<X0XuX<X<X<X,X,X,XrXrX6X6X5X,X,X6X6XqX0X,X5X,X).e.p.k.g.g.d.d.w.T C C C @.T O.[.<X6X1XyX<X9X<X,X,X6XyX6X5X,X,X5X,X5X",
"9X1X<X,X,X<X<X9XuX<X,X,X,X,X5X0XqX5X5X,X,X,X,X6XqX0X,X,X|.y.v.c.M.B.Y.Y.Y.B.M.p.R J E h.8.t.*X9XyX9X6X6X,X,X,X5XrX6X,X5X,X,X,X,X",
"9X<X,X,X,X,X,X9XyX,X,X,X,X5X,XwX0X5X,X,X:X6X5X6X0X0X5X&Xy.C.x.P.L.Y.R.I.M.M.B.B.z.R J 6.j.Z.(.5X1X6X6X6X,X<X,X5XrX6X,X,X,X6X,X,X",
"9X6X5X6X6X<X9XqXuX9X<X7X,X9X6XrXrX6X5X5X6X5X5X0XqXqX5X].Z.x.N.U.Y.C.d.g.K.f.@.f.P.x.! 5.z.s.G.%XyXtX6X6X9X<X6X5XuXuX5X5X5X6X6X6X",
"rXwXwXwXqXwXwXtXpXqXwXrXwX0XrXrXuXrX0XqXqXrX0XrXyXyX7X`.g.b.B.K.V.K.Y.~.~.Y.n.) 3.c.a.s.z.h.Z.'.pXpX6X6XuX6X6X6XuXuX6X6XrX6XyX6X",
"0X6X6X6X6X<X6X0XuX6X5X,X6X6X6XwXrX6X5X5X6X5X5X0XeXwX$X&.x.b.v.0.v.c.k.M.m.h.h.9./ 2.b.x.k.s.f._.:X6X6X6X6X6X6X6XrXrX5X5X6X6X6X6X",
"0X9X,X1X<X1X1X0XuX6X6X,X,X6X1XqXrX9X6X6X1X6X6X9XqX1X-.f.h.x.4.8.9.9.h.l.h.] _ ^ 2.I 4.c.k.s.8.G.&X5X5X5X6X6X,X6XrXrX6X5X6X6X6X6X",
"0X<X<X<X<X<X1X0XuX5X,X,X5X,X1XqXrX9X6X,X,X,X6X0XqX_.#.f.i.s.3.2._ [ [ k.h.] _ W W Y E z.j.a.6.G._.eX6X6X6X6X,X6XrXrX6X6X6X6X6X6X",
"0X6X<X<X,X<X1X0XuX,X5X6X,X,X1XqXqX6X5X,X,X,X5X6X&Xe.@.f.7.5.Y W [ k.m.B.B.k.h.' K G L 8.j.a.6.f.:.=X6X6X,X,X5X6XyX6X6X,X5X5X,X6X",
"9X1X,X,X,X<X,X9XuX,X,X,X,X,X1X0XwX5X,X,X,X,X5X,X).@.@.s.5.E G ' M.B.Y.R.Y.Y.B.m.8.J V I a.i.2.4.$.'.5X6X5X,X,X6X6X6X,X,X,X,X,X,X",
"1X<X,X,X,X,X<X9XyX5X,X6X,X,X5X0X0X6X,X,X,X,X,X=X%.I Y z./ L ! z.M.B.B.Y.Y.B.B.M.n.6.D M 8.u.` H P O.5X5X,X,X6X6XuX6X5X,X,X<X,X5X",
"9X1X,X,X,X,X<X9XyX,X,X,X,X,X,X0XwX6X,X,X,X,X5X%X@.I G 5.Y V 5.k.c.N.B.B.B.B.M.k.z.7.H y E ` ( S C X.&X,X,X,X6X6XyXyX,X,X,X,X,X,X",
"wX9X9X9X9X6X9XwXiX5X<X=X].).`.%X4X0X9X6X5X9X0X}.P / D Y R B 5.j.c.b.M.N.N.c.x.k.h.6.P M P / 2.N M Z %X6X6X6X6X6XuXyX6X6X6X6X6X6X",
"rXrXwXwXwXwXrXyXaX8X@XG.I.P.#X2XG.&XeXeXeXeXrX XB P J F J B 2.` k.x.h.] i.h.h.h.7.` L u C 2.P m r p =XwXeX6XyXeXaXuXyX6XtXeXtXtX",
"0X6X<X<X<X<X1X0XyXXXC.c.m.P.P.T.H.:.>X<X5X5X,X-Xi M C L C M P R h.] ~ ^ ~ Y ^ ~ Y U M w M P M r w x >X6X6X<X,X6XqXwX6X6X1X7X6X6X",
"9X6X<X<X<X<X1X0X7XV.j.j.5.P P @.P >.,X<X,X,X,X>Xo.u y M u , u D ^ ! W ~ K J G G D A w 0 w r u u y -.6X6X,X,X6X6XeXwX6X1X,X1X1X6X",
"9X6X<X<X,X<X<X0X|.p.6.P =.$X[.(.(.:X<X<X<X<X,X7X(.r y r r w 5 y J Y Q K J G F F S y - > q u M M t [.5X,X,X,X,X6XyX1X,X1X1X,X7X,X",
"9X<X<X<X,X<X<X9X(.p.( A '.<X>XqXwX9X<X,X<X<X<X9X=Xv t w r w > 0 C J J G G S S N N , % - t u u t o.7X,X1X5X,X<X5XyX9X,X,X<X,X,X<X",
"6X<X<X,X,X,X<X9X[.4.( I (.>X<X0XqX,X,X,X,X,X>X8X9Xr.4 0 0 q : & B L S D S N N M y . & 2 5 q q 7 '.1X6X,X,X,X,X5XwX6X,X,X,X,X,X,X",
"6X1X<X,X,X,X<X9X4X+.' ^  .).*X1X8X,X:X-X-X*X'.r.b 6 . & 3 * * & ; N y N M m 1 r % $ 3 2 3 3 3 *.7XwX6X6X,X,X,X,XwXyX,X,X,X,X,X9X",
"qXqX0X0X0X9X0XrXrX>.H ( ' 2.&.y.XXy.y.G.e.X.0 5 3 3 X . & 2 & + X & - < < < , % X 2 2 2 3 3 f _.qXyX6X6X6XyX6X6XuXuX1XyX1XwX<XtX",
"qX0X0X0X0X0X0XqXaX;Xo.P ' 6.7.8.f.s.z.z.f.P 1 5 3 3 & . + + + 4 + X 4 % - - % $ 2 4 + 4 7 4 f b }.iX6X6XrX6X6X6XuXyX1X9XrX9XtX9X",
"0X6X6X1X6X6X5X0XiX5X|.{ P 2.a.j.z.z.f.5.E C < 2 * * 4 f d s f f s 6 4 2 * % * 6 f j g f g f f z n 4X5X6X6X6X6X6XrXrX9X5X6X6X1X9X",
"6X5X5X,X,X,X,X0XtX4X<X&Xr.{ P U E E E P P y > & 2 9 9 z f k f f d 8 6 8 8 9 9 8 f z c c f z f z b |.5X6X6X6X<X6XrXwX1X5X5X5X6X1X",
"9X5X6X,X<X<X,X0XuX5X1X,X>X=X[.(.-.o.x { b -.(. X;X>X-.s k k d k f s # k l l k 8 z c c c f l d f l ;X7X6X5X,X,X5XyX6X,X6X5X,X5X,X",
"6X6X,X,X,X<X6X0XyX,X,X,X>X4X,X9XeX<X:X,X<X>X,X9XqX0X&Xv l k s d d s # 8 l l j j l c c c l c v *.;X<X5X6X,X,X,X6XrX6X,X,X,X,X,X5X",
"5X6X,X,X,X<X<X9XyX6X,X,X<X<X,X0XqX1X,X<X<X<X<X9XqX9X4X*X].'.(._. X_._._.(.(.(.'. X}.].].}.}.=X<X6X6X5X<X,X,X6X6X6XyX,X,X,X,X,X,X",
"6X,X5X,X<X<X<X9XyX,X,X<X,X<X<X0X0X6X<X,X<X<X,X9X0X9X<X,X,X,X<X7XuX5X<X5X>X,X4X7X5X1X>X<X1X,X6X6X6X6X5X,X5X5X6X6XyX6X5X,X,X,X,X6X"
};
