/* XPM */
static char *result[] = {
/* columns rows colors chars-per-pixel */
"64 64 254 2 ",
"   c #222A0B",
".  c #2D2B14",
"X  c #3E1B22",
"o  c #4D1E18",
"O  c #4E2514",
"+  c #4A262C",
"@  c #582827",
"#  c #4D2D37",
"$  c #552C36",
"%  c #593539",
"&  c #632C29",
"*  c #6B3627",
"=  c #783A2B",
"-  c #67373A",
";  c #6C353B",
":  c #733A3D",
">  c #783A39",
",  c #16510F",
"<  c #354D29",
"1  c #52572F",
"2  c #645A23",
"3  c #744C34",
"4  c #794638",
"5  c #7D723C",
"6  c #5C3945",
"7  c #663C47",
"8  c #743E44",
"9  c #5D4449",
"0  c #69464B",
"q  c #794747",
"w  c #745449",
"e  c #674556",
"r  c #7A4855",
"t  c #775759",
"y  c #696E52",
"u  c #99311D",
"i  c #AA3A1A",
"p  c #903B2D",
"a  c #A33B2A",
"s  c #B8461E",
"d  c #86422C",
"f  c #864538",
"g  c #964937",
"h  c #925334",
"j  c #9C543B",
"k  c #AB472C",
"l  c #B74727",
"z  c #A74B34",
"x  c #AB553A",
"c  c #B65739",
"v  c #97653C",
"b  c #B4623C",
"n  c #C44926",
"m  c #C75228",
"M  c #D65B2D",
"N  c #C75937",
"B  c #D55C32",
"V  c #E25F2D",
"C  c #D8642D",
"Z  c #C9653C",
"A  c #D66639",
"S  c #DD6C3C",
"D  c #CC733B",
"F  c #DC7338",
"G  c #E46C3B",
"H  c #EE7733",
"J  c #E8783A",
"K  c #823F40",
"L  c #874946",
"P  c #834B4D",
"I  c #924F4E",
"U  c #88544C",
"Y  c #96564C",
"T  c #885A55",
"R  c #8C5C5A",
"E  c #945E56",
"W  c #A85C46",
"Q  c #B85B41",
"!  c #966F46",
"~  c #8B645D",
"^  c #94615D",
"/  c #986558",
"(  c #9A715C",
")  c #B96546",
"_  c #B26C4D",
"`  c #A46A59",
"'  c #AB7658",
"]  c #B87855",
"[  c #8D5F61",
"{  c #896A65",
"}  c #946560",
"|  c #956A64",
" . c #9A6B64",
".. c #9C6D68",
"X. c #94746A",
"o. c #9D736C",
"O. c #877272",
"+. c #9A7A76",
"@. c #A56D64",
"#. c #A97567",
"$. c #A2736D",
"%. c #B87B68",
"&. c #A97C73",
"*. c #B87D73",
"=. c #C35E40",
"-. c #C76945",
";. c #D56D47",
":. c #C9744B",
">. c #D87749",
",. c #CA7957",
"<. c #D67B54",
"1. c #E67644",
"2. c #EB7745",
"3. c #EC7B42",
"4. c #E47D4C",
"5. c #EA7E49",
"6. c #C77969",
"7. c #D47E6C",
"8. c #79964A",
"9. c #DB813E",
"0. c #EE853D",
"q. c #A88B4E",
"w. c #B78958",
"e. c #8CB35A",
"r. c #B1AE58",
"t. c #9C827A",
"y. c #B8856A",
"u. c #A6857A",
"i. c #B38C71",
"p. c #B78876",
"a. c #BDA76C",
"s. c #D7814B",
"d. c #CC8A5B",
"f. c #DC8759",
"g. c #E4834B",
"h. c #EA8748",
"j. c #F28846",
"k. c #EB924C",
"l. c #F3944D",
"z. c #EC8B52",
"x. c #E78A58",
"c. c #F08751",
"v. c #F18D53",
"b. c #ED9354",
"n. c #EC935B",
"m. c #E9975A",
"M. c #F29455",
"N. c #F39B52",
"B. c #F99C57",
"V. c #F39559",
"C. c #F49C5C",
"Z. c #EEA25C",
"A. c #F4A25D",
"S. c #F8A55C",
"D. c #C48569",
"F. c #DA8269",
"G. c #D89766",
"H. c #C78976",
"J. c #D68678",
"K. c #C79579",
"L. c #D49979",
"P. c #E49464",
"I. c #F39D62",
"U. c #E5867A",
"Y. c #E89372",
"T. c #D9B664",
"R. c #ECA464",
"E. c #E9A46A",
"W. c #F5A462",
"Q. c #F8A563",
"!. c #F5AB65",
"~. c #FAAA62",
"^. c #F9A569",
"/. c #F5AE6A",
"(. c #F9AD6B",
"). c #F7B269",
"_. c #F6B26C",
"`. c #E9A679",
"'. c #F3AA75",
"]. c #EDB27A",
"[. c #F5B673",
"{. c #F6B574",
"}. c #D9C36D",
"|. c #968280",
" X c #A88C87",
".X c #AC918B",
"XX c #B2918A",
"oX c #B99588",
"OX c #B29693",
"+X c #B69B97",
"@X c #BB9D9A",
"#X c #B7A288",
"$X c #BCA19E",
"%X c #BEA6A2",
"&X c #DD8B82",
"*X c #C79985",
"=X c #EC8683",
"-X c #ED8A89",
";X c #F18B88",
":X c #EB9383",
">X c #C7A28D",
",X c #D6A98B",
"<X c #C5A59B",
"1X c #D8AB93",
"2X c #D5B292",
"3X c #DBB595",
"4X c #E4A986",
"5X c #ECB88B",
"6X c #E6BA97",
"7X c #C2A6A3",
"8X c #C6AAA6",
"9X c #CBAEAA",
"0X c #C5B0AD",
"qX c #CDB1AD",
"wX c #D5B7A1",
"eX c #D1B2AE",
"rX c #CCB8B5",
"tX c #D4B5B2",
"yX c #D6B9B5",
"uX c #DCBBB7",
"iX c #D5BBB8",
"pX c #DDBDB9",
"aX c #E6BCA1",
"sX c #E0BEBB",
"dX c #EDC299",
"fX c #F1C59D",
"gX c #E9E581",
"hX c #DECAA8",
"jX c #D4C1BE",
"kX c #DFC1BD",
"lX c #E8C6A7",
"zX c #F5D0A7",
"xX c #EBCBB2",
"cX c #E1C1BE",
"vX c #EED4B7",
"bX c #F5D7B7",
"nX c #EEE8AC",
"mX c #DBC7C4",
"MX c #E2C5C2",
"NX c #E4CAC6",
"BX c #E6CDCA",
"VX c #E8CECB",
"CX c #E7D0CD",
"ZX c #E9D1CD",
"AX c #F4DCC3",
"SX c #E7D4D0",
"DX c #EAD5D2",
"FX c #EDD9D6",
"GX c #EEDEDA",
"HX c #F9E5C7",
"JX c #F8E9D0",
"KX c #F0E1DD",
"LX c #F7EBD9",
"PX c #EEE2E1",
/* pixels */
"VXNXNXNXNXMXNXDXKXNXcXBXcXVXVXDXFXVXNXBXMXBXNXZXFXDXBXMXNXNXNXNXKXZXNXNXMXNXVXVXKXBXBXBXMXBXNXZXFXDXVXBXcXcXcXDXGXFXcXcXZXcXDXcX",
"NXMXcXcXcXcXMXNXKXcXcXcXcXcXcXZXSXMXcXcXcXcXcXNXZXBXcXcXcXcXcXMXGXNXcXcXcXcXcXBXFXMXsXMXMXsXsXNXVXVXcXcXcXcXcXcXDXZXcXcXcXcXcXcX",
"MXcXcXsXpXpXpXNXFXcXsXsXuXcXcXVXVXMXpXpXsXsXsXMXVXBXcXcXcXuXsXcXFXMXcXsXcXuXsXcXCX9X X+.o.+..XqXNXBXcXcXcXkXkXcXZXcXcXcXkXkXcXcX",
"cXsXsXpXpXpXpXNXFXcXsXsXuXuXcXBXBXMXpXpXpXpXpXcXVXMXpXpXpXpXuXcXFXMXcXsXuXcXcX8X+.] f.n.n.P.d.' X.7XsXuXuXuXuXcXZXZXcXcXkXcXcXcX",
"MXcXpXpXuXpXpXMXDXcXkXuXuXcXuXcXVXMXpXpXuXuXkXNXBXMXpXpXpXyXOX8XFXsXpXpXuXyXu.] c.j.j.3.3.3.l.V.P.w.+.eXuXpXuXcXDXcXkXuXkXuXkXuX",
"cXcXpXuXuXpXyXkXDXuXuXuXuXuXcXBXVXsXpXuXuXhXkXcXBXNXiXuX@X XeXoXDXsXpXpXuXOX<.3.j.3.3.H G J v.M.V.C.G.{ eXuXkXcXZXcXuXuXkXuXuXuX",
"cXcXuXuXuXuX$X XrXpXuXuXuXcXcXcXBXsXpXpXuXuXkXcXNXMXyX X2X>X6.p.NXMXpXuXsX*.J J J 3.G C B B 1.c.M.B.M.P.X.tXuXkXcXDXuXuXuXkXcXuX",
"NXcXcXcXcXcX$X*.H.u.qXcXcXcXcXZXSXMXsXsXmXpXcXcXZXiXu.hXH.7.-XH.mXBXMXsXsX#.C C V B n l l l l m A v.l.B.d.OXcXcXDXDXkXkXkXkXkXkX",
"CXCXBXcXBXBX0X*.F.`.#.OXNXCXCXFXGXSXBXBXBXBXZXSXrX#XlX6.=X-X-X*.rXDXCXVXBX7Xz m m Q &. X..g a a l B c.l.n. .uXcXKXFXZXcXDXcXDXZX",
"cXcXcXcXcXcX7X*.J.f.'.L.X.tXcXNXZXkXkXcXkXkXkX%X#XlX%.=X-X-X-XH.%XmXsXmXkXuX<X#.oXeXcXsXcXeX..p k s M j.M.d.@XcXFXcXcXcXcXcXcXcX",
"cXcXuXcXcXuX9X$.&XU.f.^.`.'  X$X.Xt.+.$.u.XXt.L.dX,.=X-X-X=X-X7.%XsXsXMXcXuXkXNXZXcXcXcXcXuXsX+.a s l G j.n.X.iXDXcXcXcXuXkXcXcX",
"cXcXcXuXuXcXyX$.&XJ.7.:.G.:.b D C C F 9.D _ ].5X6.U.;X-X-X=X-X7.%XMXpXuXuXkXkXcXDXcXcXsXpXpXcXjXL i i s 3.z.! tXZXZXcXcXkXcXcXcX",
"BXcXcXsXuXuXpXo.&XU.d.b F C H 0.C 0.0.9.E.[.{.L.U.;X;X-X-X=X=XJ.8XNXuXuXuXkXkXcXDXcXcXuXuXuXuXcX.Xu i i S 5.W 0XDXcXuXkXuXuXuXcX",
"cXcXuXuXuXkXuX+.L.,.s.0.F 9.0.H 0.0.0.).{.[.{.E.`.Y.:X-X=X=X=X7.0XkXcXuXuXuXkXcXZXcXsXsXuXpXcXNX%Xp m C 3.J b %XcXcXkXuXuXuXuXuX",
"cXcXuXuXkXuXmXt.%.>.N.0.9.S.N.0.N.h.[.[.{.[.[.[.{.].`.Y.U.=X=X7.rXmXsXkXuXuXkXkXZXcXcXsXuXuXpXcX0Xx 1.H H G c $XDXcXkXuXuXuXkXuX",
"cXcXcXcXkXkXpXt.:.b.N.l.k.T.0.S.Z.k.{.[.{.[.{.{.{.{.{.'.`.U.=X*.mXBXkXkXkXkXkXcXFXcXcXsXcXcXcXMXmXj S M C C x $XFXFXcXkXcXkXcXcX",
"BXNXcXBXcXcXNX| k.k.Z.m.!.!.N.!.Z.Z.[.[.[.[.[.[.{.{.).{.(.'.Y.y.FXZXcXcXcXVXcXCXFXBXcXcXcXBXcXVXmXf m m M M x 7XGXDXcXcXcXBXsXVX",
"BXBXcXcXBXcXtXL :.k.Z.Z.).).R._.!.)./.!._._.[._.{.{.).{.{.'.4X{ GXDXcXcXVXcXcXcXFXCXcXcXBXcXcXVXmXf B B M S W iXFXFXcXcXVXMXcXBX",
"cXcXcXcXkXkX<Xo o h G.!.!._._.).)._.T.d.w.q.G.!._._.(.(.(.^.,.4 jXkXkXuXkXkXcXcXFXMXpXcXcXkXcXcXjXx G 2.3.5.W tXDXVXMXcXpXkXcXcX",
"cXcXcXcXuXkXOX( 5 . h R.R._._.E.E.3     1 1 O * E._.(.(.(.^.n.>.%.tXuXkXkXkXkXcXFXsXpXkXkXkXkXcX<Xc 3.J 3.4.E sXVXVXsXcXuXkXcXcX",
"cXpXpXuXuXuXt.q.a.. . D.R.R.!.E.1 . , 8.nXnX#Xv '.).(._.(.~.^.s.z ` qXcXcXuXuXcXDXcXcXkXuXkXuXcXOX-.2.2.H 2.+.cXZXVXuXkXuXuXpXpX",
"cXsXpXuXuXkX{ q.r.1 . ! Z.R.!._ . < , e.nXgXw.m.!.).).(.(.(.W.>.c g @XcXuXuXkXcXSXcXkXcXuXkXuXuX/ ;.;.V G =.*XsXZXcXuXuXuXuXuXcX",
"cXcXuXuXpXiX~ ! }.5 1 3 Z.Z.R.3 1 y , e.gXT.b '.(.(././.(./.^.x.W L 7XuXuXuXkXcXBXcXuXpXuXuXcXOX) 1.M n n I eXsXVXBXuXuXuXpXuXuX",
"cXcXuXpXpXqX@.! q.r.! 3 s.k.s.* r.8.2 r.T.h R./././././././.W.V.W  XpXuXuXkXkXcXVXcXuXuXpXkXtX/ 5.2.1.M a  XsXsXZXNXkXuXuXuXuXuX",
"VXVXcXBXBX0X#.5X>X$.` *XL.c z 3 v 5 ! v ' E.(.(.(.(.^.I.V.M.h.A oXMXNXNXNXBXcXSXFXBXcXBXBXpXu.<.3.3.1.S Y kXZXcXFXDXVXBXcXNXNXCX",
"VXVXBXBXNX$X4 L.fXfXJ.Y.Y.Z lXJXHXhX].[.(.!.^.I.v.g.1.1.>.G A x jXVXMXyXyXiXjXBXKXCXBXcXBX.X-.5.h.h.1.Z +XVXcXcXFXFXcXcXBXNXCXcX",
"cXcXpXMXkX@X- ` K.zXfX-.c ,XLXLXJXlXa.:.:.F A ;.;.F S S S A c U mX<X6.<.>.:.,.D.i.$XuXpX X-.g.5.5.3.>.| uXcXuXcXVXCXcXcXkXuXcXkX",
"cXsXmXpXuXtX4 K.fXzXzXL.K.bXHXLXJXbXzX4X-.N Z B S S S A B m d q ] >.5.H H 0.j.N.A.G.' / :.1.5.5.2.>.Y qXkXcXcXcXCXCXcXkXuXkXkXkX",
"cXcXkXuXuXuX XK.5XfXlXy.' 6XbXbXHXbXzXL.;.-.N A A B B N N x d :.1.0.h.0.j.l.l.j.k.~.!.E.>.J 1.1.;./ 8XkXuXuXuXcXZXVXuXcXpXuXuXkX",
"cXcXuXuXuXuXuX+.y.' Y %.%.` y.*X3XlXaX*X` g g g k z x z h p ) F J l.N.S.l.j.S.S.l.b.~.!.I.>.G -.E pXkXuXuXuXuXcXZXcXuXuXuXuXuXkX",
"cXcXkXuXuXuXuXtXt ' D.H.L.D.*.` / E E / / E I g g h g f d Q Z J h.h.N.~.S.S.j.S.S.N.N.~.~.I.Z +.mXcXuXuXuXuXuXcXVXVXuXuXuXuXuXuX",
"cXcXuXuXuXuXuXsXjXt ( y.D.y.*.#. .} E ^ E E E U L L 4 4 j c A J A.S.~.).).~.B.N.~.~.l.S.S.E.D.tXNXcXuXuXkXuXuXcXVXBXkXuXuXuXuXuX",
"CXCXVXVXVXVXVXDXPXjX|.w T T T P P R R [ [ ^ ^ E ^ / / #.y.Z g.M.A.).).!.).!.!.k.A.~.A.N.S.~.E.%XGXFXkXDXcXcXDXDXKXKXZXcXDXDXCXCX",
"BXMXMXMXMXMXMXVXFXMXmX@X+ q T R R R R } } } } }  .#.#.d.;.z.C.W.A.).).!.!./.!.B.b.~.S.N.S.Q.R.#.CXCXkXkXcXcXcXcXDXZXcXcXcXcXcXcX",
"MXsXpXpXuXpXsXNXFXsXuX+Xt } } } } } } |  . .X...p.,XL.b z.S.!.!.).~.).).!.!.!.W.M.B.S.A.Q.Q.W.y.0XCXcXcXkXkXkXcXZXDXcXcXkXkXcXcX",
"MXcXpXpXpXpXsXNXDXsXyXO.~ | }  . ...........o.p.6X4X) n.A.S.!.!.W.!.!.!.!.!.!.~.B.V.!.~.!.W.W.G.$XcXkXkXuXuXuXcXZXcXcXcXuXcXkXcX",
"MXsXpXpXpXpXpXNXFXpX@X[ { |  ...o.o.o.o.o.$.u.3XaXG.n.Q.W.~.W.W.n.m.W.(.~./.W.W.V.B.!.W.W.W.A.E.t.ZXkXkXkXuXuXcXDXcXkXuXuXkXuXkX",
"MXsXpXpXuXpXpXMXFXsX7Xt | ..o.o.&.&.&.&.y.u.,X6XdXE.I.Q.Q.W.W.W.Q.s.^.W.^.W.W.W.A.W.~.W.W.W.A.I.w.uXcXcXuXuXuXkXZXcXuXcXuXuXuXuX",
"MXpXpXuXuXuXpXMXSXuXtXT ~  .@.&.u.p.*X*X,X,X3XdXdXR.Q.Q.W.W.W.Z.W.:.W.W.W.W.W.W.A.S.W.C.C.C.C.I.D.9XcXcXuXuXuXkXZXcXuXuXuXkXuXuX",
"MXMXsXsXcXpXMXVXDXmXuX%XT ..$.&.p.p.*X,X2X2X6XdX5X^.W.Q.W.W.W.C.W.:.A.R.W.A.C.C.Z.W.I.C.C.C.C.V.G.rXcXcXkXkXkXkXFXFXkXkXkXcXcXcX",
"VXVXVXVXBXVXVXDXPXVXVXNX[ r  .&.H.H.K.*X,X3X6X6X5XW.W.W.W.W.W.C.x.s.R.A.W.C.C.V.I.C.b.C.C.V.C.M.P.rXcXcXFXcXcXcXFXFXcXcXZXcXDXcX",
"NXcXcXcXpXpXMXNXFXcXcXpX|.q I #.#.p.H.p.*X1X3X5X5XR.W.C.Q.C.C.A.m.x.C.I.I.C.V.k.V.g.V.V.B.V.V.V.P.@XcXcXcXcXcXcXZXZXkXkXcXcXcXcX",
"NXcXpXsXpXsXpXBXFXsXsXpX%X0 L Y @.@.*.*.%.K.,X2X`.E.W.A.C.C.C.V.z.f.C.C.m.V.z.4.:.v.M.M.V.V.V.V.x.$XcXkXcXcXuXcXZXZXcXkXcXcXcXcX",
"NXsXpXpXpXpXsXMXGXpXpXpXpX X> L I } Y @.&.` #.K.G.I.C.C.C.C.V.C.g.f.C.z.v.c.>.-.Q v.b.M.v.V.z.M.f.%XcXcXcXcXuXcXZXZXcXkXcXcXcXcX",
"BXsXpXpXpXpXsXNXFXpXpXpXuXyX[ K L L T P T ^ R T j x.C.A.C.V.M.M.D c.x.h.x.1.-.g W v.v.v.v.v.c.c.f.+.yXcXuXuXcXcXDXcXcXuXkXkXuXcX",
"MXsXuXuXpXpXuXMXFXpXpXpXuXuXX.> L L L r q q P P d s.N.V.V.V.M.z.-.4.g.g.>.) g L j z.c.z.z.z.z.4.P.L.>XyXcXuXuXcXcXcXuXuXuXuXuXuX",
"sXpXuXuXuXuXpXMXDXsXuXsXuXuXt.P > p L p K 8 8 8 = x.V.C.B.V.k.4.z ;.<.;.Q g > > 4 f.h.g.g.c.5.Z P.G.'.p.yXuXcXcXFXcXkXuXuXuXuXkX",
"MXsXuXuXuXuXpXMXDXuXuXuXuXuX.XI 8 : L f K 8 7 ; f n.V.V.V.V.v.-.k Q -.c p 8 8 8 & Z 4.4.g.5.A ;.x.V.h.d.OXuXcXcXDXDXuXuXuXuXuXuX",
"BXMXMXMXMXcXMXVXGXkXMXcXMXkX7XI I 8 ; K K 8 > & W n.I.V.V.v.g.) g Q z > : : : : & g -.1.;.-.N <.<.j.1.;.#.pXsXMXDXDXcXcXcXcXcXcX",
"VXZXVXVXVXVXZXDXPXCXVXVXBXCXrXP P P ; o & > ; & -.n.V.v.M.v.>.j p p > * ; : ; : - @ z c N N -.<.>.2.G 1.D.8XDXVXKXFXDXcXSXVXSXSX",
"NXcXpXpXpXpXsXNXFXpXsXsXkXuXqXq I P 8 7 o X & @ f.M.V.V.V.z.>.= q $ + % ; ; ; ; ; - & f x Q :.) ;.A N F.lX XuXcXVXVXcXkXkXkXcXcX",
"MXcXpXpXpXpXsXNXFXcXsXpXuXuXyXP I P P 7 7 + $ @ x.M.V.V.v.4._ O.CXuX$X9 X + $ ; ; $ $ 9 % L h T [ f %.L.vXt.pXcXZXVXcXcXpXkXkXcX",
"MXcXpXpXuXpXpXNXFXuXuXkXuXuXyXE ) P P 8 7 + - * P.v.v.V.v.<.U qXKX.Xt 9 e # X $ $ # O.iXyX8XeXuXjX[ @.>XAX XuXcXDXcXuXcXkXuXkXuX",
"MXpXpXpXuXpXpXMXZXkXuXuXuXkXuX~ 7.I P r 7 # 0 4 x.V.V.V.x.;.+.pXjX0 7 7 $ $ % 7 - % +XkXuXuXcX7Xt } &.xXAXu.eXcXDXcXuXuXuXuXuXkX",
"cXpXpXuXuXuXpXMXDXkXcXuXkXkXkX| 7._ I r e # 7 d P.V.V.V.>.) 7XpXmX9 7 7 + 6 7 6 7 t pXpXkXkXjX{ *X1Xp.xXbXi.rXkXVXcXuXuXuXuXuXuX",
"cXsXpXuXuXuXpXMXFXuXuXtX+Xu.XXE :.7.I P e # 0 3 x.n.V.c.;./ yXpXGX+Xe 6 + % 7 0 O.rXuXuXkXcXyX~ aX,XlXbXvXXX9XpXZXSXuXuXuXuXuXkX",
"BXBXNXNXNXMXNXZXGXNXMX X2XHXvXvXzX3X` r 7 6 OXwX,X4X4X<.:.+.NXBXPXBXmXqX0X$X$XrXGXcXZXcXZXcXtX~ 1X3XAXvXxXu.tXcXFXFXcXZXcXCXcXSX",
"BXBXNXNXNXNXNXVXKXNXiX>XhXJXnXHXHXvX/ r e .XHXHXvXAXAXzXy.7XMXcXPXCXNXcXNXNXMXCXKXcXcXDXDXcXkX{ p.1XbXvXlXX.uXcXFXDXcXcXCXcXDXcX",
"NXcXkXsXcXsXpXNXFXkX9X*XhXbX3XbXbX2Xe e 9 $XHXvXbXJXAXxXp.tXcXcXFXBXcXpXsXsXcXMXFXcXcXcXcXcXkX$Xw ~ oX>Xt.XXcXcXZXZXcXkXcXcXcXcX",
"MXkXpXuXsXuXpXNXDXcXyX{ i.6X( lX3X Xe e 6 X.3X>XvXbXvX1X XpXpXsXFXcXcXcXpXcXcXMXcXcXkXuXcXcXkXcXmX$XOX.X8XkXuXcXZXVXcXkXkXkXkXcX",
"MXkXpXuXpXpXpXNXGXpXpX7XO.w % 3 w 0 t t t 0 U U  .*Xp.E @XpXsXsXFXcXpXpXiXuXpXcXDXcXcXkXkXkXcXcXcXZXcXcXkXuXuXkXDXcXuXkXkXuXkXuX",
"cXcXpXuXuXpXpXNXDXpXuXuXyXeXqX0XiXiXiXuXkXtX<X+X.X.XXX7XuXuXpXsXFXcXpXpXpXpXcXcXDXcXcXkXkXcXcXcXFXcXkXcXuXuXuXkXZXcXuXuXuXuXuXkX",
"cXsXuXuXuXpXpXMXDXsXuXuXpXpXpXNXVXkXuXpXiXpXpXMXBXMXpXuXuXuXuXcXFXcXpXuXpXpXcXcXZXcXkXuXkXuXcXcXcXcXkXuXuXuXcXcXcXDXuXuXuXuXuXuX",
"cXpXpXuXpXpXpXMXDXpXuXpXuXpXpXBXNXkXpXpXpXpXuXMXNXMXpXuXuXuXpXcXFXcXpXpXuXpXpXcXcXkXuXuXcXuXcXcXcXcXkXuXkXcXcXcXDXcXkXuXuXuXuXkX"
};
