/* XPM */
static char *result[] = {
/* columns rows colors chars-per-pixel */
"64 64 183 2 ",
"   c #010001",
".  c #0B0201",
"X  c #03030A",
"o  c #150301",
"O  c #1D0B04",
"+  c #1C110E",
"@  c #0F0D16",
"#  c #151116",
"$  c #1A1415",
"%  c #210C04",
"&  c #311E0F",
"*  c #2A1E17",
"=  c #341F12",
"-  c #372112",
";  c #392211",
":  c #3E2718",
">  c #211C21",
",  c #2B2325",
"<  c #382C27",
"1  c #342E34",
"2  c #353136",
"3  c #38343B",
"4  c #3B363B",
"5  c #412615",
"6  c #462C17",
"7  c #4A2D19",
"8  c #4B3119",
"9  c #52331B",
"0  c #5E3819",
"q  c #763E09",
"w  c #623D1A",
"e  c #523622",
"r  c #5A3C23",
"t  c #433737",
"y  c #41393D",
"u  c #4C3C3A",
"i  c #533C30",
"p  c #643F21",
"a  c #774108",
"s  c #6C441E",
"d  c #764516",
"f  c #7C4411",
"g  c #75451C",
"h  c #5F4535",
"j  c #634225",
"k  c #6D4726",
"l  c #6D4926",
"z  c #67452B",
"x  c #6D4A28",
"c  c #744822",
"v  c #744E29",
"b  c #785431",
"n  c #473E43",
"m  c #4A3F42",
"M  c #4D4246",
"N  c #4E4549",
"B  c #504649",
"V  c #534A4E",
"C  c #5C4D4D",
"Z  c #5D514F",
"A  c #574C52",
"S  c #5B5256",
"D  c #635046",
"F  c #6D5B51",
"G  c #63565B",
"H  c #65585E",
"J  c #695A5E",
"K  c #665A60",
"L  c #6B5D62",
"P  c #6C6267",
"I  c #766768",
"U  c #7B6D71",
"Y  c #854E1C",
"T  c #935A1E",
"R  c #995D1F",
"E  c #9B601F",
"W  c #8F5723",
"Q  c #8F5921",
"!  c #85592E",
"~  c #885A2D",
"^  c #925B22",
"/  c #9A5E21",
"(  c #905D2C",
")  c #8F5D31",
"_  c #976123",
"`  c #9B6123",
"'  c #95612A",
"]  c #9B622F",
"[  c #976839",
"{  c #A66929",
"}  c #A56A2C",
"|  c #B67327",
" . c #B97326",
".. c #B6732C",
"X. c #B9732B",
"o. c #AA6C31",
"O. c #AD7436",
"+. c #A57039",
"@. c #AC743A",
"#. c #B47532",
"$. c #B67931",
"%. c #BD7934",
"&. c #B57739",
"*. c #B97A38",
"=. c #C37C2E",
"-. c #C47E32",
";. c #936D47",
":. c #A77748",
">. c #AC7F50",
",. c #86757A",
"<. c #907C7F",
"1. c #BD813E",
"2. c #C68132",
"3. c #CD8534",
"4. c #CF8935",
"5. c #C7843B",
"6. c #C9843A",
"7. c #CD8A3D",
"8. c #D18736",
"9. c #D68D36",
"0. c #D88C35",
"q. c #D48A39",
"w. c #D58D39",
"e. c #D5913A",
"r. c #BD8343",
"t. c #BC864A",
"y. c #B58853",
"u. c #C18441",
"i. c #C98341",
"p. c #D09049",
"a. c #D7954A",
"s. c #DA974A",
"d. c #D29E66",
"f. c #D3A069",
"g. c #917D80",
"h. c #958285",
"j. c #9B8688",
"k. c #9D8A8C",
"l. c #A28A8B",
"z. c #A38E91",
"x. c #AC9597",
"c. c #AC9B9B",
"v. c #B49E9E",
"b. c #AFA0A0",
"n. c #B2A4A4",
"m. c #BDA3A4",
"M. c #B3A9A9",
"N. c #B9AAAA",
"B. c #C2A6A4",
"V. c #C3A8A6",
"C. c #C4ABAB",
"Z. c #CCB1AF",
"A. c #CCBBB9",
"S. c #D5B7B4",
"D. c #D6B8B5",
"F. c #DBBBB7",
"G. c #D5BBB9",
"H. c #DDBDB9",
"J. c #E0BEBA",
"K. c #F5C68C",
"L. c #F7C88F",
"P. c #F9C88E",
"I. c #F7CA91",
"U. c #F9C991",
"Y. c #DFC0BC",
"T. c #E1C2BD",
"R. c #DDC4C1",
"E. c #DBC7C5",
"W. c #E2C5C1",
"Q. c #E8C7C3",
"!. c #E5C9C6",
"~. c #E9C8C4",
"^. c #E5CCC9",
"/. c #E9CDCA",
"(. c #E6D1CD",
"). c #E8D2CE",
"_. c #E6D4D2",
"`. c #EAD5D1",
"'. c #E4D8D7",
"]. c #ECD9D6",
"[. c #EDDCD9",
"{. c #EDE0DE",
"}. c #F0E1DE",
/* pixels */
"~.W.W.W.W.W.~.[./.Q.W.W.T.W.~.[.(.!.T.Q.T.T.Q.(.`.^.~.T.Q.T.T./.[.!.W.W.W.T.W.!.].!.Q.T.W.T.W./.).).!.W.W.W.W.W.~.].Q.Q.W.W.T.W.",
"T.J.J.H.H.J.T.].W.J.J.H.H.J.T.`.W.T.J.H.Y.F.T.~.(.T.F.F.Y.Y.Y.T.].T.J.H.H.H.J.W.`.W.T.J.J.H.H.T.^.^.J.H.H.J.F.J.~.].T.J.H.H.J.J.",
"T.J.H.H.H.H.J.].W.J.H.H.H.H.J.).W.T.H.H.H.H.T.~.(.T.H.F.F.F.Y.T.].T.Y.H.J.H.H.T.).T.H.H.H.H.H.W.!.^.J.H.H.H.H.J.T.].Y.H.H.H.H.H.",
"T.H.F.F.H.H.T.].W.J.H.H.H.H.J.`.W.Y.F.F.F.H.T.~.).T.H.Y.F.F.F.T.[.T.H.F.F.F.H.T.`.W.H.H.H.F.H.T.!.^.J.H.H.F.H.H.T.].H.H.F.H.H.H.",
"T.H.F.F.F.H.J.].W.H.H.F.F.H.H.`.W.Y.H.F.F.H.H.Q.(.Y.H.F.F.F.F.Y.].Y.H.F.F.F.H.T.).T.H.H.F.F.H.W.!.^.H.H.F.F.F.Y.W.`.H.H.F.F.F.H.",
"H.F.F.F.F.H.H.`.W.F.F.F.F.H.H.`.W.H.F.F.F.H.H.T.^.Y.F.F.F.F.Y.Y.`.Y.F.F.F.F.F.Y.`.T.H.F.F.F.H.W.!.!.H.F.F.F.F.F.T.`.H.F.F.F.F.H.",
"H.H.F.F.F.F.H.`.T.F.F.F.F.F.H.).Y.H.F.F.F.H.H.T.^.Y.H.F.F.F.F.Y.`.Y.F.F.F.F.F.H.(.T.H.F.F.F.H.T.~.!.H.F.F.F.F.F.Y.).H.F.F.F.F.H.",
"W.W.W.R.T.W.!.].!.R.T.W.R.W.!.].^.W.R.T.W.T.W.(.).W.T.Y.R.W.W.!.].!.W.W.W.T.W.!.].W.R.Y.W.T.T.!././.W.R.W.W.R.T.^.[.Y.W.W.T.W.E.",
"^.^.^.^.^.^.^.{.(.^.^.^.^.^.^.{.).^.^.^.^.^.^.).[.^.^.^.^.!.^.(.{.(.^.^.^.^.^.^.[.^.^.^.^.^.^./.`.].^.^.^.^.^.^.).[./.^.^.^.^.^.",
"W.Y.Y.Y.T.T.T.].W.T.H.H.H.H.T.`.!.T.H.H.F.F.T.~.(.W.Y.H.H.H.J.T.[.T.T.H.H.H.H.W.].W.Y.H.H.H.H.W.^.^.Y.H.H.H.H.T.~.[.W.T.T.T.H.Y.",
"h.g.g.<.<.v.T.].W.H.H.H.H.H.J.`.W.Y.H.H.H.H.T.!.).Y.H.H.H.H.J.T.].R.H.H.H.H.H.T.`.W.H.H.H.H.H.W.^.^.Y.H.H.H.H.Y.W.c.g.g.g.<.<.j.",
".   .     U ~.].W.H.H.H.H.H.H.`.W.H.H.H.F.H.T.!./.T.H.H.H.H.H.T.[.T.H.H.H.H.H.T.`.W.H.H.H.H.F.W.^.^.H.H.H.H.H.F.T.V       .   > ",
"  = ; 6 : L V.A.C.m.S.F.F.H.H.).W.Y.H.F.F.H.H.~.^.T.H.F.F.H.J.Y.].Y.H.H.F.F.H.T.).T.H.H.F.F.J.T.^.^.J.H.S.v.m.m.V.C 6 5 - &   > ",
"* :.&.i.p.;.    X X x.H.F.H.Y._.R.H.F.F.F.H.H.W.^.Y.F.F.F.F.F.Y.`.Y.H.F.F.F.H.Y.(.Y.H.F.F.F.F.J.!.!.H.F.,.  X X + y.p.u.&.;.o > ",
"< ;.#.6.w.[ % + O o z.F.S.F.D.^.R.F.S.S.D.D.F.T.E.H.D.S.S.S.F.H.(.H.G.S.S.S.D.Y.^.R.D.D.S.D.S.H.R.!.G.G.P O % O & r.q.-...;.> 1 ",
"Z.t ; '  .1.t.t.o.:.h M M M M V M M M M M N N B V N M M M M M B V N N M M M M N V M M m m m M M B N m M b +.:.u.*.%.*.v ; A D.S.",
"R.3   ! $.2.4.w.X.*.e         .                           .         .     .                             v X.=.0.a.%.&.z   H !.W.",
"!.x.k.F b [ 2.-.X.*.c 7 7 7 7 7 7 7 7 7 7 7 7 7 8 7 7 7 7 7 7 7 7 7 7 7 7 7 7 7 7 7 7 7 7 7 8 7 7 7 6 7 ( #.X.-.5.b b I k.m.W.!.",
"T.H.T.L X 0 $.X.X...T g g g g g g g g g g g g g d g d g g g g g g g g g g g g g g g g g g g g g g d d p ` X.X.X.@.;   k.H.Y.H.J.",
"T.H.H.k.S D [ [ } o.] ( ( ~ ( ( ( ( ( ( ( ( ( ( ( ( ( ( ( ( ( ( ( ( ( ( ( ( ~ ( ( ( ( ( ( ' ~ ~ ) ) ) ) } o.{ [ ;.Z G v.H.F.H.H.",
"Y.H.F.Y.Y.l.  % s q f.I.P.P.P.P.P.P.P.P.P.P.P.K.P.P.P.P.P.I.I.P.P.P.P.I.K.P.P.P.P.P.P.K.I.P.P.U.U.I.L.U.>.d 0   > E.Y.H.H.F.H.H.",
"Y.H.F.D.D.j.. O s a d.K.K.K.K.K.K.K.K.P.K.K.K.K.K.K.K.K.K.K.K.P.K.K.K.K.K.K.K.P.L.K.K.K.K.K.K.K.P.L.L.I.>.d w . , E.H.H.H.F.F.H.",
"Y.F.H.,.V u z s 1.2.p.s.s.s.s.s.s.s.s.s.s.s.s.s.s.s.s.s.s.s.s.s.s.s.s.s.s.s.s.s.s.s.s.s.s.s.s.s.s.s.s.s.7.6.+.s h C V c.H.F.H.H.",
"Y.F.Y.J X - g Y q.0.w.0.0.0.0.0.9.9.9.0.0.0.0.9.0.0.0.0.0.9.0.0.0.0.0.0.0.0.0.0.0.0.0.0.9.0.0.0.0.0.0.w.0.w.-.d s %   h.H.F.H.H.",
"R.x.h.B 5 k } { w.w.w.0.w.w.w.9.9.9.e.w.w.w.w.w.w.w.w.w.w.w.w.w.0.w.w.9.e.w.w.w.w.w.w.w.w.w.9.w.w.e.w.w.0.w.3.E } 9 5 J l.m.T.W.",
"^.4   9 g { w.w.0.9.w.0.0.0.w.9.9.w.0.0.0.0.0.w.0.9.9.0.0.0.w.0.w.w.0.9.9.w.0.0.0.0.0.0.w.w.0.0.0.0.0.0.0.w.0.0.w.Y x : X L ).^.",
"T.L y i p ~ r.r.5.2.1.6.6.6.6.5.5.5.5.5.5.5.5.5.5.5.5.5.6.5.5.5.5.5.5.5.5.5.5.5.5.5.5.5.5.5.5.5.5.5.6.5.5.i.r.1.t.k j u y ,.T.J.",
"T.H.Y.G . o o O d d f f f f f f f f f f f f f f f f f f f f f f f f f f f f f f f f f f f f f f f f f f f f 0 o o o   j.H.H.H.H.",
"T.H.J.U # # # * x g g d d g d d d d d d d d d d d d d d d d d d d d d d d d d d d d d d d d d d d d f g g k r # # # @ z.H.H.H.H.",
"T.H.F.Z.B.B.B.A.t & l Q ^ W ^ T Q Q Q Q Q Q ^ Q Q Q Q Q Q Q ^ Q Q Q Q Q Q Q Q Q ^ Q Q Q Q Q W Q Q ^ Q ^ 0 & C B.B.A.B.S.H.F.F.H.",
"Y.H.F.H.F.H.H._.3   l / R / T T R R R T R R R T R R R R R R T R R T / R E R R / T R R T R R / / / / / ' 8   H J.W.`.H.H.F.F.F.H.",
"H.F.F.F.F.H.H.^.1   l ^ _ / / E / / / _ / / / _ E / / / / / / / _ / / / T E R / / / / / / / / ^ / / / ' 8   K Y.T.`.F.H.F.F.F.F.",
"W.W.W.W.W.W.Q._.2   l / _ / ` R / / / / / / / / / / / / / / / / / / / / R / / / / / / / / / / / / / / ' 8   K ^.!.[.W.W.W.W.!.!.",
"(.^.^.^.!.^.^.'.2   l E _ / R / / / / / / / / / / / / / / / R ` R R R / ` { R / / / / ` R R / / ` R { ` 8   L `.^.{.^.^.^.E.!.!.",
"Y.H.H.Y.F.T.T._.2   ~ ......$.........................................................................#.j   G W.Q.].J.H.H.H.H.H.",
"Y.H.H.H.H.F.Y.).2   ~ ....X...X.X.X.X.X.X.X.X.X.X.X.X.X.X.X.X.X.X.X.X...X.X...X.X...X.X.X.X.X..... . .$.p   K J.T.].H.H.H.H.H.H.",
"T.F.F.F.H.H.Y._.2   ~ ..X.X.X.X.X.X.X.X.X.X.X.X.X.X.X.X.X.X.X.X.X.X.X.X.X.X.X.X.X.X.X.X.X.X.X.X.q.4.4.7.k   G Y.T.].H.H.H.H.H.H.",
"T.H.F.F.F.F.Y.(.2   ~ ....X.X.X.X.X.X.X.X.X.X.X.X.X.X.X.X.X.X...X.X.X.X.X.X.X.X.X.X...X.X.X.X.-.w.w.w.e.x   G T.T.`.H.H.H.F.F.H.",
"Y.H.F.F.F.F.Y.(.2   ~ ....X.X.X.X.X.X.X.X.X.X.X.X.X.X.X.X.X.X.X.X.X.X.X.X.X.X.X.X.X...=.=.=.=.2.w.0.0.e.x   G Y.T.].F.H.F.F.F.H.",
"Y.F.F.F.F.D.Y.^.2   ~ ....X.X.X.X.X.X.X.X.X.X.X.X.X.X.X.X.X.X.X.X.X.X...X.X.X.X.X.X...w.w.w.w.w.0.0.0.e.x   H Y.T.`.F.F.F.F.F.H.",
"Q.T.W.W.R.W.W.].4   ~ ....X.X.X.X.X.X...X.X.X.X...X.X.X.X.X.X.X.X.X.X...X.X.X.X.=. . .4.9.9.w.e.9.9.9.e.x   K (.^.[.T.W.W.W.E.W.",
"^.!.W.W.!.!.^.'.4   ~ ....X.X.X.X.X.X.X.X.X.X.X.X.X.X.X.X.X.X.X.X.X.X...4.9.e.e.e.e.9.9.9.9.e.w.9.0.9.e.x   L /.^.[.Q.^.W.Q.^.!.",
"T.Y.Y.Y.Y.Y.T._.4   ~ ..X.X.X.X.X.X.X.X.X.X.X.X.X.X.X.X.X.X.X.X.X. . .| w.9.9.9.9.0.9.9.9.9.9.0.w.9.0.e.x   K ~.~.[.T.Y.Y.Y.F.J.",
"Y.H.H.H.H.H.T.(.4   ~ | ..X.X.X.X.X.X.X.X.X.X.X.X.X.X.X.X.X...-.8.-.-.3.9.9.9.9.9.9.9.9.9.9.9.0.w.9.0.e.x   J T.T.].Y.Y.F.F.Y.J.",
"T.H.F.F.H.H.T._.4   ~ ..X.X.X.X.X.X.X.X...X..... .X.X.X. .| | 8.0.9.w.0.0.9.9.9.9.9.9.9.9.9.9.9.9.9.w.e.v   H T.T.).Y.F.F.F.F.H.",
"T.H.F.F.H.H.H._.4   ~ ..X.X.X.X.X.X.X.X.X...=.%.=.=.=.%.=.=.=.8.0.9.9.0.0.9.9.9.9.9.9.9.9.9.9.9.9.9.0.e.v   G T.T.`.Y.F.Y.F.F.H.",
"Y.F.F.F.F.H.T._.4   ~ ..X. .X.X.X.X.X.X.X. .q.w.w.w.e.0.w.w.w.w.0.w.w.9.9.9.9.9.9.9.9.9.9.9.9.9.9.9.w.e.v   G T.T.].F.T.F.F.F.H.",
"Y.F.F.F.F.F.H.^.4   ~ ..X. .=.X.X.X.=.X.X.X.q.w.0.w.9.9.0.9.9.0.0.w.0.0.9.9.9.9.9.9.9.9.9.9.9.9.9.9.9.e.x   J T.T.`.F.F.F.F.F.F.",
"H.F.F.F.H.F.H._.4   ~ ..%.w.q.w.w.w.w.w.w.w.w.0.0.w.w.0.w.0.9.9.9.9.9.9.9.0.w.9.9.9.9.9.9.9.9.9.9.9.9.e.l   J Y.W.`.H.F.F.F.F.H.",
"W.Y.T.T.W.T.W._.4   ~ ..=.e.w.w.w.w.w.0.w.w.w.w.0.9.0.w.0.w.9.9.9.9.9.9.9.9.0.9.9.9.9.9.9.9.9.9.9.0.w.e.x   K !.!.[.W.T.W.R.T.W.",
").^.(.^.^.^./.[.y   ~ ..X.=.=.=.2.2.2.=.=.2.0.0.w.9.9.0.0.0.w.e.w.9.9.w.9.w.w.9.9.9.9.9.9.9.9.9.9.9.9.e.x   P `.).}.^./.^.^.^.^.",
"T.H.H.H.H.H.T._.4   ~ ..X.X.X.X.X.X.X.X.X. .w.0.0.0.9.w.0.w.w.9.w.9.9.0.w.0.0.9.9.9.9.9.9.9.9.0.9.0.9.e.x   J T.W.].J.H.J.F.H.J.",
"T.H.H.F.H.H.H._.4   ~ ..$...X...X.X.X.X.X.X.6.4.4.8.4.w.q.q.8.4.8.8.8.8.4.8.8.4.8.8.8.8.8.8.8.4.4.4.8.7.l   L T.T.`.T.H.H.F.H.H.",
"T.H.H.F.H.H.J._.4   ~ | X.|  .X...X.X.X.X.X.|  . . . . ...X.X...X.X.X.X... . .|  . .X.X... . .| |  .X...r   P T.T.`.H.H.H.F.H.H.",
"H.H.F.F.F.F.J._.4   b O.#.O.O.O.O.O.O.O.O.O.O.O.O.O.O.O.O.O.O.O.O.O.O.O.O.O.O.O.O.O.O.O.O.O.O.O.O.O.+.:.r   L T.T.].F.H.F.F.F.H.",
"J.H.H.F.F.H.H.(.y   $ & & & & & & & - & & & - & & & & & & & & & & & & & & & & & - & & & & & & & & & & - O   L T.T.].F.F.F.F.F.H.",
"H.F.F.F.F.F.H.).n                                                                                           P Y.Y.`.F.F.Y.F.F.H.",
"!.W.W.W.W.W.W.[.N.b.c.b.x.x.c.M.v.c.c.b.c.c.c.n.M.b.c.b.c.x.c.c.M.c.x.c.c.x.c.c.N.c.x.x.c.x.x.c.n.n.b.c.c.c.C.W.(.{.T.W.W.Y.T.W.",
"(.(.!.^.!.^.^.{.`.(.^.^.^.^.^.{.(.^.^.(.^.^.^.).].).^.^.!.^.!.(.{.(.^.^.^.^.^.^.[./.^.^.^.^.^.(.`.`.(.^.^.Q.!.^.(.{.!.^.^.(.^.^.",
"T.H.Y.H.H.J.T.`.W.T.Y.H.H.H.T.`.W.T.H.F.F.T.T.~.(.T.H.Y.H.H.J.T.[.T.H.J.T.F.Y.W.`.W.T.Y.H.F.Y.W.!.^.Y.F.Y.J.J.T.~.].T.T.F.Y.Y.J.",
"T.H.H.Y.F.H.T.].W.H.H.F.Y.F.T.`.W.T.H.H.H.H.T.Q.).T.H.J.F.H.H.T.[.T.Y.F.J.F.F.W.).W.H.H.H.H.H.W.!.^.Y.F.Y.F.T.T.T.`.Y.Y.Y.F.F.H.",
"T.H.F.F.H.H.T.].W.H.H.F.F.H.H.`.W.Y.F.F.F.H.J.~.^.Y.H.F.H.H.J.T.[.T.F.F.F.F.T.T.`.T.H.H.F.H.H.W.!.^.Y.T.F.F.F.Y.T.`.Y.F.F.F.J.F.",
"T.H.F.F.F.H.Y.].T.H.F.F.F.F.T.`.W.H.H.F.F.H.H.~.^.Y.H.F.F.F.F.T.].T.F.T.F.F.J.Y.`.T.H.H.F.F.H.T.!.^.J.F.F.F.F.F.T.`.Y.T.F.F.F.H.",
"T.F.F.F.F.F.Y.`.T.F.F.F.F.F.Y.`.W.H.F.F.F.H.H.W.^.Y.F.F.F.F.F.Y.`.T.F.F.F.F.F.T.).T.H.F.F.H.H.T.!.!.H.F.F.F.F.Y.T.`.F.F.F.F.F.F."
};
