/* XPM */
static char *result[] = {
/* columns rows colors chars-per-pixel */
"64 64 209 2 ",
"   c #030104",
".  c #0B0303",
"X  c #05050C",
"o  c #18151C",
"O  c #23190A",
"+  c #2E210A",
"@  c #3A2412",
"#  c #372519",
"$  c #342C2C",
"%  c #492F1C",
"&  c #4D321B",
"*  c #51361F",
"=  c #5C3C1F",
"-  c #4F3520",
";  c #513720",
":  c #5A3C21",
">  c #413A3E",
",  c #695511",
"<  c #694B2A",
"1  c #7D4D23",
"2  c #744D2B",
"3  c #6A532C",
"4  c #433D42",
"5  c #483F43",
"6  c #4A4346",
"7  c #4E474A",
"8  c #5C4F53",
"9  c #5F5255",
"0  c #615456",
"q  c #6B5C54",
"w  c #635659",
"e  c #65595C",
"r  c #695C5E",
"t  c #705E57",
"y  c #6B5E60",
"u  c #6E6164",
"i  c #726568",
"p  c #746668",
"a  c #884E16",
"s  c #814D1F",
"d  c #894E19",
"f  c #82592F",
"g  c #88672D",
"h  c #886234",
"j  c #BB7227",
"k  c #B7732C",
"l  c #BA722A",
"z  c #BD782C",
"x  c #AD7234",
"c  c #A9743C",
"v  c #B67631",
"b  c #B77935",
"n  c #C07729",
"m  c #C2792A",
"M  c #976A44",
"N  c #897349",
"B  c #B09519",
"V  c #AA8929",
"C  c #B58F2F",
"Z  c #BDA435",
"A  c #CAA618",
"S  c #DCB81C",
"D  c #E5BF06",
"F  c #C0862F",
"G  c #CA8434",
"H  c #CC8A3E",
"J  c #D68D36",
"K  c #D88C36",
"L  c #D58D39",
"P  c #D98E3A",
"I  c #D59336",
"U  c #D79A32",
"Y  c #D99C33",
"T  c #D6923D",
"R  c #D9913B",
"E  c #C9A924",
"W  c #D2A827",
"Q  c #DCA62D",
"!  c #DDB52A",
"~  c #DBA232",
"^  c #DBA735",
"/  c #E2AE2C",
"(  c #E5B927",
")  c #E3B32B",
"_  c #E7BB32",
"`  c #EAC40A",
"'  c #F2CA09",
"]  c #ECC51A",
"[  c #F2CB13",
"{  c #F3CC1C",
"}  c #F3D01E",
"|  c #EBC526",
" . c #F2CA21",
".. c #F2D12D",
"X. c #ECC837",
"o. c #F5D43A",
"O. c #A28851",
"+. c #C78744",
"@. c #CA8942",
"#. c #D69641",
"$. c #DD9542",
"%. c #D79A44",
"&. c #D99C45",
"*. c #E19746",
"=. c #E59E4D",
"-. c #E89E4E",
";. c #DEAD42",
":. c #DBA44B",
">. c #DDAC4E",
",. c #DDAD52",
"<. c #CEB258",
"1. c #DEB355",
"2. c #DFB55A",
"3. c #E7A34E",
"4. c #E9A14E",
"5. c #E5AC4B",
"6. c #E5B748",
"7. c #E7A353",
"8. c #E9A354",
"9. c #E7A458",
"0. c #E3BA58",
"q. c #DDB867",
"w. c #DFBC74",
"e. c #D9B979",
"r. c #E9C548",
"t. c #EDD142",
"y. c #F2D544",
"u. c #F4D74B",
"i. c #E8C556",
"p. c #E6C35B",
"a. c #E9C95B",
"s. c #F3D756",
"d. c #FADE54",
"f. c #DEC177",
"g. c #E4C366",
"h. c #EFD665",
"j. c #F5DD67",
"k. c #E4C675",
"l. c #E7CC73",
"z. c #E1C37C",
"x. c #EDD175",
"c. c #ECD47A",
"v. c #EED97C",
"b. c #F7E064",
"n. c #F6E16D",
"m. c #F9E56D",
"M. c #F8E678",
"N. c #968486",
"B. c #B19C9B",
"V. c #DBBD85",
"C. c #DCBD8B",
"Z. c #D8B995",
"A. c #DBBC9B",
"S. c #E0BE83",
"D. c #C6ADAD",
"F. c #CDB1AF",
"G. c #D6B8A2",
"H. c #D9BBA4",
"J. c #D7B8AC",
"K. c #DABBAC",
"L. c #CFB3B1",
"P. c #D3B6B3",
"I. c #D6B8B5",
"U. c #DBBBB6",
"Y. c #D4BDBB",
"T. c #DDBDB9",
"R. c #E0BFBB",
"E. c #DCC186",
"W. c #DDC398",
"Q. c #E1C584",
"!. c #E2C38D",
"~. c #EBD889",
"^. c #E2C897",
"/. c #EBD893",
"(. c #F4E283",
"). c #F9EB84",
"_. c #F5E78B",
"`. c #F5EA94",
"'. c #F6EA99",
"]. c #FAF299",
"[. c #DEC3A6",
"{. c #DEC3AC",
"}. c #DBC1B8",
"|. c #DEC1BD",
" X c #E3CBA4",
".X c #E2C7AD",
"XX c #E2C8B3",
"oX c #E1C2BE",
"OX c #E1CABA",
"+X c #E7D2B1",
"@X c #F5EBA8",
"#X c #FBF6A3",
"$X c #FBF9A6",
"%X c #FCF9AC",
"&X c #FAF2B5",
"*X c #FDFCB2",
"=X c #DEC5C2",
"-X c #DFC9C6",
";X c #E2C6C2",
":X c #E3C9C6",
">X c #E5CDCA",
",X c #E6D1C6",
"<X c #E8D3C6",
"1X c #E7D0CD",
"2X c #E8D2CE",
"3X c #EAD5D2",
"4X c #EBD9D6",
"5X c #FBF5CA",
"6X c #FCF7D0",
/* pixels */
";XoXoXoXoXoX:X3X:XoXoXoXoXoX>X3X;X;XoX;XoXoX;X>X2X;XoXoXR.oX;X2X3XoXoXoXoXoXoX3X2X;XoXoXoXoXoX>X2X:XoX;XoXoXoX;X4X>XoXoXoXoXoX3X",
"R.R.T.T.T.R.;X4XoXR.R.T.T.R.:X2X;XR.T.T.T.R.;X:X>XR.R.R.R.T.R.>X2XR.R.T.T.T.R.>X:XoXR.R.T.R.R.:X:X:XR.R.R.T.T.oX2X:XR.R.T.T.T.2X",
"R.T.T.T.T.T.;X3XoXT.T.T.T.T.:X2X;XT.T.T.T.T.oX:X>XT.T.T.T.T.T.>X2XT.T.R.T.T.T.:X>XoXT.T.T.T.T.;X:X;XT.T.T.T.T.oX2X:XR.T.T.T.T.>X",
"T.T.U.T.T.T.;X3XoXT.T.U.T.T.;X2XoXT.T.U.U.U.R.:X>XT.T.U.U.U.T.>X2XU.T.U.U.U.R.>X:XoXT.T.U.U.T.:X>X;XT.U.U.U.U.|.2X;XT.T.U.U.T.2X",
"|.T.U.U.U.T.R.3XR.T.U.U.U.T.;X2XT.T.T.U.U.U.|.;X>XT.T.U.U.U.T.:X>XT.U.U.U.U.T.OX[.oXT.U.U.U.T.;X:X;XU.U.U.T.U.T.2X:XT.T.U.T.U.>X",
"T.U.U.U.U.T.;X3XR.K.A.U.U.U.;X>X=XU.T.U.U.T.T.k.OXT.U.U.T.U.T.:X>XT.U.U.U.U.I.p.X.A.T.U.U.U.U.;X:XoXU.U.U.U.T.R.>X;XU.U.U.U.T.>X",
"T.U.U.U.U.T.oX3XT.C. .J.U.U.;X>XT.U.U.U.U.U.g.K.f.A.T.U.U.U.T.:X>XT.U.U.T.{.q.[.z.V.A.T.T.U.U.;X:XoXU.U.U.U.T.T.>X=XU.U.U.U.T.>X",
":X:X:X:X:X;X>X4X>X X{ XX:X;X2X3X:X;X:X:X;X:X.XQ. XoX:X;X:X;X:X3X3X:X:X;X-Xz.| Q.[.r.i.}.;X:X:X2X3X>X:X:X:X;X;X|. X>X=X:X:X:X:X3X",
":X;X;X;X;X:X>X4XOX!. .XX;X;X1X3X>X:X;X;X:X;X>X X>X;X:X:X;X;X;X3X3X:X:X:X;X|.w. Xk.W.[.=X;X;X:X2X3X>X:X:X:X=X-XZ.W.=X;X:XoX;X:X4X",
"R.T.R.T.T.R.;X2XX.' { G.P.I.=X:XT.I.I.I.I.I.T.=X-XU.U.I.I.U.I.;X:XI.I.I.U.I.I.w.r.A.I.I.I.I.I.|.=XT.U.I.I.P.I.Y.OX>XoXT.|.T.R.>X",
"R.T.T.T.T.T.;X3Xr.s.'.<.O.0 w e e 0 0 w 0 0 e e r 0 w 0 0 0 w e r w 0 0 0 0 0 t N w 0 9 9 0 9 e y e w 0 0 8 u D.2X;X|.T.T.T.T.>X",
"T.T.U.T.R.K.OX<Xr._.5Xs.E + O O                                         .                                   o B.3X:XT.T.T.T.T.>X",
"T.U.U.T.I.r.| X.&X5X5X5X@XD ` A @ @ @ @ @ @ @ @ @ @ @ @ @ @ @ @ @ @ @ @ @ @ @ @ @ @ @ @ @ @ @ @ @ @ @ @ @ @ # O.D.L.U.T.U.U.U.>X",
"T.T.U.U.U.V.e.V ~.@X6X'.f.C C V 1 1 s 1 1 1 1 s 1 1 1 1 1 s 1 1 1 1 1 1 1 1 1 1 1 1 1 1 1 1 1 1 1 1 1 1 1 1 2 $ $ p I.T.U.U.U.1X",
"T.U.U.T.I.U.L.$ A v.5Xo.A d a a d d d d d d d d a d d d a d d a d d d d d d d a a a a a a a a a a a a a a a 1 #   9 I.U.U.U.T.>X",
"=X|.|.=X=X=XY.> O V ..' Q +.+.+.+.+.+.+.+.+.+.+.+.+.+.+.+.+.+.+.+.+.+.+.+.+.+.+.v v k v z v k v v v z v z v c - X 9 |.|.|.=X|.2X",
":X;X;X=X;X;XY.4 . B ' _ 6.9.8.8.8.8.7.7.8.7.7.9.9.7.7.7.7.8.9.9.8.8.7.9.7.7.9.3.P L J L L J J J J I L J J L +.:   r |.=X;X;X;X3X",
":XoX;XR.R.oXL.4 . V [ 3.4.7.4.4.8.-.=.=.-.=.=.-.=.=.=.=.=.-.=.-.=.=.-.=.=.=.-.=.P J J J J J J J J J L 0.%.J H :   r |.oX|.oX=X3X",
"T.T.T.T.T.T.P.4 . V [ 5.8.4.4.8.-.P P L L L L L L L L J J L L L L L L L L P L K L J J J J J J J L L :.n.1.%.H :   r U.T.T.T.T.>X",
"T.T.T.T.U.U.L.4 . c _ 4.4.8.8.4.4.P P J J J J K J J J J J I J J L K J J J J J J J J J J J J J J L 1.n.*X).a.H =   r Y.}.U.T.T.>X",
"T.T.U.U.U.U.L.4 . M 9.7.7.4.=.$.$.L J J J J K J J K J J I ] J K K K I K K J J J J J J J J J K J 0.(.%X*X%X`.g.3   e U.T.U.T.U.>X",
"T.U.U.T.U.U.L.4 . M 9.7.4.4.*.J J J J I K K K K K P K ~ | u.| I K K K K K J J J J J J J J J J J 0.x.].*X]._.1.<   y I.U.U.U.T.>X",
"T.T.U.U.U.U.F.4 . M 9.7.-.4.*.J J J J J K K K K J 0.&.Q  .d.[ K 1.5.K K K K J J I J J J J J J J K ,.h.$X(.p.H :   w I.U.U.U.U.>X",
"T.U.U.U.U.U.L.4 . M 9.-.R P K J J J J J J J J J L >.w.i.} d.[ k.q.&.J J J J J K J J J J J I K J J J T j.>.L H :   r I.U.U.U.T.>X",
">X:X:X:X:X:XY.6 . M 9.-.P K I J J J J J J J J J U U c.j.y.m.o.M.q.U R J J J J J I J J J J J J J J J L ,.T J H :   y =X;X:X;X:X3X",
">X-X:X=X;X:XY.6 . M 9.-.P J K J J J J K J J J I ] { { o.M.%Xm...[ { ( I J J J J K J J J J K J J J J J J I J H :   u ;X:X:X:X;X4X",
"R.U.V.U.T.R.L.6 . M 9.-.P J K J J J J J J J I | d.d.d.).*X*X*Xm.d.d.u.( I J J J J J J J J J J J J J K J L J H :   r U.T.T.T.T.2X",
"K.Z.z.Z.I.T.L.6 . M 9.-.P J J J J J J J J J K U  .{ { u.).*Xm...{ { _ I J J J K J J J J J J J J J J J J J J @.:   e U.T.T.T.T.>X",
".X0.A.g.G.U.P.5 . M 9.-.P P J J J J J J K J J J Y Y l.j.y.M.o.m.0.Y U K J K J J J J J J J J J J J J J J J J H :   r Y.T.T.U.U.>X",
"T.J.r.K.U.U.L.6 . M 8.-.P K J J J J J J J J J J J :.w.a.} d.[ k.q.&.K J J J J J J K J J J J J J J J J J J J H :   r I.J.U.U.U.1X",
"T.U.I.U.U.U.L.6 . M 8.-.P J J J J K J J J J J J J p.&.Q } d.[ I >.>.J J J J J J J J J J J I J J K J J J I J H =   e J.C.J.U.U.1X",
"oXT.U.U.U.T.P.6 . M 8.-.P K J J J J J I J J J J J J K Y { d.] I J J J J J J J J J J J J J K J J J J J J J J H =   q V.I.V.I.T.>X",
":X:X:X:X:X:XY.6 . M 9.-.P J J L I K J J J J J J J J J J I | I J J J J J J J J J J J J J I K J J J K J J J J H :   i =XE.-X:X>X3X",
"-X=X:X-X=X:XY.6 . M 9.-.P J J L J K J J J J J I J K J J K I J J J J J J J J J K J J J J J J J J J J J J J J @.:   u =X|.=X=XoX3X",
"T.T.T.T.U.T.P.6 . M 9.-.P J ~ Y J J J J K J J K J J J J J J J K J J J J J J J J J J J J J J J J J J J J J J H :   r U.T.T.T.|.>X",
"R.T.T.T.T.T.P.6 . M 9.-.P J _ ) J J J J J J J J J J J J J J J J J J J J J J J J J J K J ~ Y J J J K J I J J H =   e U.T.T.T.T.1X",
"T.T.U.U.T.T.P.6 . M 8.-.P J a.i.J J J J J J J J J J J J J J J J J J J J J J J J J J J K ) ~ J I J J J K J I H =   r U.T.U.U.T.>X",
"R.T.T.U.T.T.L.5 . M 8.-.T i.`._.i.L K J J J J J J J K I J J J J J J J J J J J K J J 1.#.6.^ :.:.J J J J J J H =   r U.U.U.T.U.>X",
"T.U.U.U.I.T.P.6   M 5.5.1.(.$X#X(.,.^ Y J J K J J J J J J J K J J J J J J I J J J J :.,.v.l.>.%.J J J J J J H =   e Y.U.U.U.U.>X",
"T.T.U.T.T.T.L.6 . M | u.n.%X*X*X%Xj.t.( J J J J J J J J J J J J J J J K J J J J ~ ~ ;.(.$X].l.5.Q Y J J J J H =   e I.T.T.U.T.2X",
":X:X:X:X:X=XY.7 . M 9.-.&.j.].#Xn.&.I K K J J J J J J J J J J J J J J J J J J J ^ ) 6.(.%X$Xx.6.) Y J J J J H =   r =X:X:X:X>X3X",
";X-X;X:X;X;XT.6 . M 9.-.L 5.v.v.,.J J J J J J J J K J J J J J J K J J J J J J J J J %.1.(.v.,.#.J J J J J J H =   r |.oXoXoX;X3X",
"T.T.T.|.T.T.P.6 . M 9.-.P J i.6.J K J J J J J J J J J J J J J I J J J J J J J J J J 2.#.6.^ :.>.J J J J J J H =   e U.T.T.T.T.2X",
"oXT.T.T.T.T.P.6 . M 9.-.P L ( / J J J J J J J J J J J J J J K J J K I J J J J J J J J J / Q J J J J J J J J H =   w Y.T.T.T.T.>X",
"|.T.U.U.T.T.I.6 . M 9.-.L J I I J P J J J J J J J J J K J J J J J J J J J J J J J J J J ~ U J J J J J J J L H :   e U.U.U.T.T.>X",
"T.U.U.U.T.T.P.6 . M 9.-.L J L J J K G J J J J J J J G L L J J J J J J J L J J J L J J J L J J J J J G J J J +.:   e I.A.C.U.T.>X",
"T.U.U.U.U.T.F.5 . h #.L n z z n z n n z n z z z n n n z j z z n j n n n j z n n j n n n j z z n n n n n z z b &   w I.w.!.U.U.>X",
"T.T.U.Z.I.Z.F.5 . h L J z j l j l l l j j j j j l j j j l j l j j z j l l l j j l l l l j l j j l l j j j l x &   q G.h.~.G.I.>X",
"T.U.U.A.I.A.F.4 . f G G l l v l l l l l l l j j l l l l l l l l m W j j l l l l l l l l l k l l l l l l j k x &   N f.'.@Xf.E.2X",
">X:X-XC.|.C.I.4 X 2 k l l l l l l l l l l l j j j l l l l l l l F S l j l j l j j j j j l l l l j j l l l v x &   e |.^.s.{.-X4X",
":X:X-XK.=X{.Y.4 . < c x x x x x x x x x x x x x x x x x x x x C ] [ W x x x x x x x x x x x x x x x x x x x c %   9 -X[.z.|.:X3X",
"R.T.T.T.T.T.F.>   @ & ; ; ; ; & * * * * ; - ; - - ; ; - & & g X.m.`.s.E - - ; ; ; - ; ; ; & ; ; * * * * - - % O X 9 I.H.A.T.T.1X",
"T.T.T.U.T.T.L.4 .                                         , _ M.%X*X].t.B .                                     X e I.U.T.T.T.>X",
"T.T.U.U.T.T.I.N.p u e e 0 e r r e w w r r r y y i y y N E ! d.%X*X*X*X_.` E Z p p y y u y y y i i y y y y y y y u N.T.T.T.T.T.1X",
"T.U.U.U.U.T.;X>XT.I.I.P.P.P.T.:XU.P.U.P.U.P.U.=X:XU.I.P.H.V.o.).*X*X#Xb.r.G.J.;X=XU.I.I.I.I.I.T.;XT.I.I.U.I.I.U.:X=XT.U.U.U.I.2X",
"T.T.T.U.U.U.oX3X|.U.T.U.U.T.;X:X XU.U.U.U.U.R.;X:XU.U.U.}.U.C.y.).#Xb.a.J.U.T.:X:XR.U.T.U.U.T.:X:X|.U.U.U.U.U.T.>X-XU.T.U.U.U.>X",
"R.T.U.U.U.T.oX4X|.U.T.T.U.U.|./.'.^.T.T.U.U.T.:X>XT.T.U.R.R.K.^...u.a.H.T.T.T.>X:XR.T.T.U.T.T.S..X;XU.T.U.U.T.T.2X:XU.T.T.U.T.>X",
">X:X>X:X:X:X2X4X>X>X:X>X:X:X/.$X*X`.XX>X:X:X>X3X3X>X:X>X:X:X,X2X+Xa.XX>X:X:X>X3X3X>X:X>X>X:Xz..XQ.XX:X:X>X:X>X>X4X2X:X>X>X:X>X3X",
":X;X;X;X;X;X>X4X:X;X;XoXoXoX:X/.'. X;X;X:X;X:X>X2X;X;XoXoXoXoX2X+Xg.:XoX;X;X;X2X2X:X;X;X;X;XK.Q.W.:X;X;X;X;X;X:X3X>X;X;X;X;X;X3X",
"oXU.R.T.U.R.oX4XoX|.T.T.T.T.:X,X XT.U.T.U.T.oX:X>XR.T.T.T.R.oX>X,XH.oXT.T.T.T.>X>XR.U.T.T.T.R..XOX;XT.T.U.R.R.R.2X>XR.T.T.T.T.>X",
"R.T.T.T.T.T.oX2XoXT.T.R.T.R.;X2XoXT.T.T.T.T.oX;X>X|.T.T.R.U.R.:X1XR.R.T.T.T.T.:X>XR.R.T.T.T.T.:X>X;XT.T.T.U.R.R.2X:XT.T.T.T.T.>X",
"R.T.U.U.T.T.;X4XR.T.U.T.T.T.:X2X;XT.U.U.U.U.oX:X>XT.T.T.U.U.R.:X1XT.U.U.U.T.T.>X>XoXT.T.U.U.T.:X>X;XT.U.U.U.U.R.2X:XT.T.T.T.T.>X",
"T.U.U.U.U.R.oX2XoXU.U.U.T.T.;X1XR.T.U.U.U.U.oX;X:XR.U.U.U.U.R.:X>XR.R.U.U.U.T.:X:XR.U.U.U.U.U.;X:XoXU.U.U.U.T.R.2X;XU.U.U.U.U.>X",
"U.U.I.U.U.U.oX2XR.I.I.U.I.U.oX>XT.U.U.I.U.U.R.;X:XU.I.U.U.U.U.;X>XU.U.I.I.U.T.:X:XT.U.U.U.U.U.;X;XoXU.U.I.U.U.T.>X;XU.I.U.U.U.>X"
};
