/* XPM */
static char *result[] = {
/* columns rows colors chars-per-pixel */
"64 64 18 1 ",
"  c #DCBBB7",
". c #DDBDB9",
"X c #E0BEBB",
"o c #DFC1BD",
"O c #E1C1BE",
"+ c #E2C5C2",
"@ c #E4CAC6",
"# c #E6CDCA",
"$ c #E8CECB",
"% c #E7D0CD",
"& c #E9D1CD",
"* c #E7D4D0",
"= c #EAD5D2",
"- c #EDD9D6",
"; c #EEDDDA",
": c #EFE1DE",
"> c #F0E1DD",
", c #EEE2E1",
/* pixels */
"$@@@@+@=>@O#O$$=-$@#+#@&-=#+@@@@>&@#+@##>@##+#@&-=##OOO=;-OO&O=O",
"@+OOOO+@>OOOOOO&*+OOOOO@&#OOOOO+;@OOOOO#-+OOOOO@$#OOOOOO=&OOOOOO",
"+OOX..X@-OXX OO$%+..XXX+$#OOX.XO-+OXO XO=+OXXXX+##OOOooO&OOOooOO",
"OXX....@-XXX  O#$+.....O#+.....O-+O. OOO=O.....O#OO    O&&OOoOOO",
"+O.. ..+=oo  O O$O.. ..+#+.....X-O..   O=OO. .O@$Oo  o O=Oo o o ",
"OO.  ..+=     O##o.    +#@..  ..-O..  OO&O..  .OO$ o  oO&O  o   ",
"OO    .+=o   oOO#X    .+@+......=O  oooO&O.   OO$OOo   oO=   oo ",
"@OOOOOo#=OOOOOO&*+OOOOO@&#OoooO+>#OooOOO=+OOOOO@&&OOOOOO==oooooo",
"&&#O##&=>#O#$##-;*####$=--#$##$&:=%####=>&&#@@&=->OO=OOO>-&O=O=&",
"OOOOOoO#-OOOOOO#$+.+X..@$@OOOXXO=OOOo OO=OOOOoXOOOOOOOOO-OOOOOOO",
"OO Oo OO-OOo XO#%+.....@#@O...XO-Oooo o@&OOOO OO=O oOOoo=OOO oOO",
"OOo  oO@-O Xo O#%+.....+#@.....O-Oo  ooO=OOo..O@O=oooo o&&OOooOO",
"#OOX  oO*o    XO#+.. ..+#@.....X-@   ooO=Oo   .O=OOOo  o=O o   O",
"OO   o O= oo  O##o.    +#+  ....=Oo   oO&Oo. .o@O=OOoo oOOo     ",
"Oo  o oO=o   ooO#o. ...+#+. ...X=Ooo  oo&OO.  .OOOOoooOO=Oo   o ",
"OOoOooO#=oooooO&*+ooooo#$#ooOOOO>@oooooO-OOoooo+=OOOOOOO--OoooOO",
"#@O#OO#*>OOO#OO--$OO#%O==&+++@+@>%OOO$O%-#OOO#O$==OOOOOO>-OOO#O#",
"##OO#OO&>O#O##O==$OOOOO*&&@+@++@>=OO$OOO-%OO#OO$===OOOO=--OO%OO#",
"OOOoooO#=OO oo $%OOoooOO#@X...XO-Oo ooOO-OooOoOO=OOO   O&&Oo oOO",
"OOOo OOO=o oooOO%OooooOO#@....XO>O ooooO-O ooooOOOoOo  O&$Oo ooO",
"O o   oO=O  o o#OO  o  O#@... .O-OOoo  O=OOo o O=&o    O&$ o  o ",
"OO   oOO=oO   o#$Oo  ooO$+. .. .=Ooo  oO*Ooo o O&O  o  O&O     o",
"OO   ooO*o    oOOOo   oO@+.   .o%O    oO$O    OOO&Oo   o$#      ",
"OO    oO*     o@*O     O#+      -oo  ooO$O   ooO&Ooo    &@o     ",
"$#O##@@&>@@@#@#=-#O##O#*=&O&@@@#>#@@@@O*-$O##O#%=-#OO$&O-=$#O@@%",
"&###@O@&>@@@OO@=-#%OOO#&=*O#@+@#>%@O@@@*>$#O##O$=-OO%$OO--OO#@%O",
"OoooO O&=ooo oO$%oooo OO##OO.XXO-OOoooOO*OOOOooO## oOo O%%OOo oo",
"Oooo OOO-  oo o&%ooo ooO#Ooo. .X-OOoooOO$OO oo O@#oooooO%%Oo ooo",
"OOo   OO-o   oOO#O   ooO#O   o X-O oo  O*OO  oOO$#oo   O&$ o   o",
"OO    OO=oo   o##Oo   oO##o    X=o    oO*OOO  oOO&o    O&O     o",
"Ooo    O=      #OOo    O@#o    X=Oo   oo&O    oO&O     O$$      ",
"OO     O=O     O*ooo   O#O     O-O     o&O    oO@O  o  O$#o     ",
"%%%%$$$=,%%%$$*-;%##$$$=--$%%$$$>*%%%&%=>*$&&O==--O=OO==>>&O==%%",
"@++++++#-++++++*&@+o+Oo#*%ooOOO+;%OOOOOO>OOOOOOO*&OOOOOO=&OOOOOO",
"+O.. .X@-.....X$%@XXXXX@#@XXXX.X-OOoOOOO&OOoOOOOO%OOoooO&=OOooOO",
"+O....X@-o.....##+X.X X+#@.X X.X-OOOooO&&O  OOOO*Ooo   O&OOO ooO",
"+X.....@-... ..$$+X   X@#@ ..  X=Oo oo O=OOoooOOO=ooo  O=Oo  o o",
"+X.  ..+-.    .##oX    +#@.  ..X&O    oO&OOo OOO=OOO   o&O o    ",
"+.     +=    . ##o     +@@. . ..=Oo  o o$O    OOOOOO   o&O   o  ",
"+OoOO.+#-+.+.+o$&+ooooo@##oooOoO>OoooOOO&OOoOOOO=*OOoooo--oooOOO",
"%$$$#$$*,$$$$##=-%###$@&==#$$@$$>-&OOO&->&O=OOO=>>OO-OOO--OO&O=O",
"@OOOo.O@-oo.OX+$&+ooooo@%#ooOooo-OOOOOOO-OOOOOO=OOOOOOOO&&ooOOOO",
"@O.X.XX@-XX..XX$&+XXXXX@$@XXXXXX>OOOooOO=OOOOOOO=OooOO O&&OoOOOO",
"@X....X@;.....X$&+X...X@$@.X...X>OOOooOO=OOOOOOOO=OOOO O&&OoOOOO",
"@O.. .X@-... .X$$O.. ..@$@. ...X-O o  oO=O   oOO=OOO  oO=OO oo o",
"+X   . +-... .X@$X.   .O@@.  ..X-O o  oo&Oo   OOO=OOo  oOO      ",
"X.    .+=...  .@#X.   .O@@.   ..-Ooo   o&OOo   OOOOO  OO-Oo    o",
"+X    .+=     .@$o    .@@+.   ..=Ooo   o&OOo   O&O    oO==      ",
"#++++o+$;o+o+o+*&@++o++#%$ooO+o+>OOOOOOO;OOOOOOO=&OOOOOO-*OOOOOO",
"&&$$$$%=,*$$#%$;;&#%%#$=--$*&&%&>==O*&==>-OO&--O--O&&O=$>-=O*%**",
"@o....X@-XXX..X$%+.....###.....O>Oo OOoO-OooOOOO&&OOO  O$$OoooOO",
"+o....X@-XX.. X#%+.....+##.....o>Oo ooOO-OoooooOOOOO  OO&$oo ooO",
"+O.. ..@-......#$o.....+#+......>OOOo  O&OOoo  o=Oo    O=O oo o ",
"+... ..+=..  ..#$+. ...+#@. . ..=OoO   O&Ooo  oo$& oo  O=O     o",
"O..   .+=... ..@#..   .+@+.    .=O    OOOoo ooOOOOO    o$O      ",
"OX.   .+-.    .@#o  .  +#+.    .-O  ooOO&o  oOOO&$Oo    &*     o",
"##@@@+@*;@@@@+@=-#@@+@+%=&+##+@#>#@+@+#&>O&O&OO===OOO=OO--O&O%O*",
"##@@@@@$,@@@@@#==%@@@@#%=&#++#+O:%@O@@+&>OO==OO*=>OO&OOO-=OO%O*O",
"@ooXoX.@-ooX.X.#&Oooo..@%#oOOOOO-#OXXXO+-OOOOOoOO=oOOOOO&&OoOOOO",
"+o. X .@=X....o#&O. ...+#@.....X-Ooo.oo+OOo OOoO=OoOOO O&$OooooO",
"+oX ...@;.. ...#%o.o...@#@..o oX-O..  .O=OOoooOOO=OOo  o=O oo o ",
"OX.  ..@=.   ..@%o. . .+@@.    X-O.. .oO=OOooOOO=Ooo   o&O     o",
"oX   ..+=X  ...@#o .  .+#+.    O-O.   oO&Oo o OOOOo   OOO=      ",
"O.. ...+=. . ..@@o. .. +@+.   .O-O.. .oOOo  o OOOOo ooOO=Oo    o"
};
