/* XPM */
static char *result[] = {
/* columns rows colors chars-per-pixel */
"64 64 207 2 ",
"   c #4D7A20",
".  c #657629",
"X  c #B40A29",
"o  c #C30C2F",
"O  c #CB172A",
"+  c #C61638",
"@  c #D91337",
"#  c #E41C2F",
"$  c #E3153D",
"%  c #F21D35",
"&  c #FA1F35",
"*  c #F91E3B",
"=  c #F9272B",
"-  c #F52D2B",
";  c #F92A2B",
":  c #F83524",
">  c #F63B24",
",  c #F3312B",
"<  c #FA3629",
"1  c #ED2137",
"2  c #FA2133",
"3  c #F6223C",
"4  c #E33438",
"5  c #8E5B35",
"6  c #A84E3F",
"7  c #AB553D",
"8  c #9A623F",
"9  c #F64526",
"0  c #F74529",
"q  c #F44C2A",
"w  c #E7502F",
"e  c #F65629",
"r  c #E04034",
"t  c #F45B32",
"y  c #F9652F",
"u  c #E6623B",
"i  c #F36131",
"p  c #F96731",
"a  c #F76B37",
"s  c #F9753B",
"d  c #F97A3C",
"f  c #EA1846",
"g  c #E21E49",
"h  c #F01947",
"j  c #FB1E45",
"k  c #F41D4C",
"l  c #FA1E4B",
"z  c #F71C50",
"x  c #FB1E53",
"c  c #CA3C4E",
"v  c #D63A4C",
"b  c #DB3253",
"n  c #E5254E",
"m  c #FA2243",
"M  c #F5204A",
"N  c #EA2A55",
"B  c #F32555",
"V  c #FB2154",
"C  c #F52758",
"Z  c #FA2459",
"A  c #F92B5E",
"S  c #EC325E",
"D  c #F1305D",
"F  c #F72E62",
"G  c #FB2D62",
"H  c #E73C66",
"J  c #F83264",
"K  c #F93569",
"L  c #F63C6E",
"P  c #F93E72",
"I  c #A94F40",
"U  c #976145",
"Y  c #9C6651",
"T  c #9E6F55",
"R  c #BB7676",
"E  c #C04046",
"W  c #CF5140",
"Q  c #C84A58",
"!  c #DE475A",
"~  c #DA575B",
"^  c #E9454D",
"/  c #DA634A",
"(  c #D36756",
")  c #DF7359",
"_  c #EE7946",
"`  c #F77643",
"'  c #D64061",
"]  c #D7536A",
"[  c #D15873",
"{  c #E74267",
"}  c #F1446F",
"|  c #E64B74",
" . c #F84878",
".. c #E75378",
"X. c #C66E67",
"o. c #D86C68",
"O. c #C5716A",
"+. c #D27068",
"@. c #C87974",
"#. c #D57679",
"$. c #DA757E",
"%. c #5A8825",
"&. c #5D8B2A",
"*. c #5F9127",
"=. c #628C28",
"-. c #63922C",
";. c #678837",
":. c #6C9934",
">. c #769034",
",. c #769837",
"<. c #76A82D",
"1. c #7DB42F",
"2. c #76A737",
"3. c #79AD34",
"4. c #7EB534",
"5. c #688744",
"6. c #708C48",
"7. c #7E9B59",
"8. c #7CA843",
"9. c #8D883C",
"0. c #82923B",
"q. c #81AA3C",
"w. c #85BC33",
"e. c #84BA3A",
"r. c #FB823F",
"t. c #8CC53C",
"y. c #8DCA3A",
"u. c #91CC3B",
"i. c #93D339",
"p. c #8C8D42",
"a. c #829D5D",
"s. c #82B241",
"d. c #87AA59",
"f. c #929A69",
"g. c #939478",
"h. c #89A368",
"j. c #91AF67",
"k. c #95B664",
"l. c #96A171",
"z. c #8EC341",
"x. c #96D149",
"c. c #A3E34E",
"v. c #F94F80",
"b. c #F45A87",
"n. c #D97B83",
"m. c #EA6B8D",
"M. c #F56993",
"N. c #EC7A96",
"B. c #A69C88",
"V. c #B69E92",
"C. c #ABAA88",
"Z. c #ACB58A",
"A. c #B9A69A",
"S. c #BCAD9C",
"D. c #B5B291",
"F. c #BCB49E",
"G. c #D5908C",
"H. c #C99594",
"J. c #D59A9C",
"K. c #C3B19E",
"L. c #C89FA4",
"P. c #ED83A4",
"I. c #E388A4",
"U. c #F283A6",
"Y. c #EA91A9",
"T. c #F28DB0",
"R. c #F499B8",
"E. c #D3A8A9",
"W. c #C4B4A4",
"Q. c #CCB5AB",
"!. c #D5B1AE",
"~. c #D6B4B2",
"^. c #DAB4B2",
"/. c #D5BAB3",
"(. c #DCBBB7",
"). c #DAB9BB",
"_. c #DDBDB9",
"`. c #F4A2BE",
"'. c #E0BEBB",
"]. c #C9C6B5",
"[. c #D4C6BE",
"{. c #DFC1BD",
"}. c #E1C1BE",
"|. c #F0AFC6",
" X c #EBB4C8",
".X c #F3B3CA",
"XX c #DCC9C2",
"oX c #E2C5C2",
"OX c #E4CAC6",
"+X c #E6CDCA",
"@X c #E8CECB",
"#X c #E7D0CD",
"$X c #E9D1CD",
"%X c #EFC0D2",
"&X c #F5C9D9",
"*X c #E7D4D0",
"=X c #EAD5D2",
"-X c #EDD9D6",
";X c #EFD2D9",
":X c #EEDDDA",
">X c #F1D6DC",
",X c #EFE1DE",
"<X c #F0E1DD",
"1X c #F1DBE1",
"2X c #EEE2E1",
"3X c #F5E6EB",
"4X c #FCFBFB",
/* pixels */
"@XOXOXOXOXoXOX=X<XOX}.+X}.@X@X=X-X@XOX+XoX+XOX$X-X=X+XoXOXOXOXOX<X$XOX+XoXOX+X+X<XOX+X+XoX+XOX$X-X=X+X+X}.}.}.=X:X-X}.}.$X}.=X}.",
"OXoX}.}.}.}.oXOX<X}.}.}.}.}.}.$X$XoX}.}.}.}.}.OX$X+X}.}.}.}.}.oX:XOX}.}.}.}.}.+X-XoX}.}.}.}.}.OX@X+X}.}.}.}.}.}.=X$X}.}.}.}.}.}.",
"oX}.}.'._._.'.OX-X}.'.'.(.}.}.@X#XoX_._._.}.'.oX@X+X}.}.'._.'.}.-XoX}.'.}.(.'.}.=XoX}.'.'.'.'.oX+X+X}.}.}.{.{.}.$X}.}.}.{.{.}.}.",
"}.'.'._._._._.OX-X'.'.'.(.(.}.+X@XoX_._._._._.}.+XoX_._._._._.}.-XoX}._.(.}.}.}.=X}._._._._._.}.+X}.}.(.(.(.(.}.$X$X}.}.{.}.}.}.",
"oX}._._.(._._.oX=X{.{.(.(.}.(.}.@X}._._.(._._.oX+XoX_._._._._.'.-X}._._.(.(.(.}.=X}.}._.(._.}.OX@X}.{.(.(.{.(.}.=X}.{.(.{.(.{.(.",
"}.}._.(.(._._.oX=X(.(.(.(.(.}.+X+X}._.(.(.(.(.oX+XOX_._.(.(._._.-X}._._.(.(.}.}.$X}._._.(.(._.}.}.@X(.{.(.(.{.}.$X}.(.(.{.(.(.(.",
"}.}.(.(.(.(._.oX=X{.(.(.(.}.}.}.+X_.(.(.(.(._.oXOXoX_._._._._._.=X}.(.(.{.{.{.}.$X}._.(.(.(.}.}.@X}.}.}.(.(.(.{.}.=X(.(.(.{.{.(.",
"OX}.}.}.}.}.{.+X=X}.}.}.}.}.}.$X=XoX}.}.}.}.}.OX$X+X}.}.{.{.}.oX<X+X}.{.{.}.}.}.=XoX}.}.}.}.}.OX$X$X}.}.}.}.}.}.=X=X{.{.{.{.{.{.",
"$X$X+X}.+X+X$X=X<X+X}.+X@X+X+X-X:X*X+X+X+X+X@X=X-X-X+X@X+X+X@X$X,X=X#X+X+X+X+X=X<X$X$X+XOXOX$X=X-X<X}.}.=X}.}.}.<X-X$X}.=X}.=X$X",
"}.}.}.}.}.{.}.+X-X}.}.}.}.}.}.+X@XoX_.oX'._._.OX@XOX}.}.}.'.'.}.=X}.}.}.{.(.}.}.=X}.}.}.}.{.'.}.}.}.}.}.}.}.}.}.-X}.}.}.}.}.}.}.",
"}.}.(.}.{.(.}.}.-X}.}.{.(.'.}.+X#XoX_._._._._.OX+XOX}._._._.'.}.-X}.{.{.{.(.{.OX$X}.}.}.}.(.}.}.=X}.(.{.}.}.{.{.=X}.}.}.(.{.}.}.",
"}.}.{.(.(.{.}.OX-X}.(.'.{.(.}.+X#XoX_._._._._.oX+XOX_._._._._.}.-X}.{.(.(.{.{.}.=X}.}.{._._.}.OX}.=X{.{.{.{.(.{.$X$X}.}.{.{.}.}.",
"+X}.}._.(.(.{.}.$X}.(.(.(.(.'.}.+XoX_._.(._._.oX+XOX_._._._._.'.-XOX(.(.(.{.{.}.=X}.{.(.(.(._.}.=X}.}.}.{.(.(.{.=X}.(.{.(.(.(.}.",
"}.}.(._.(.{.(.}.=X(.{.{.(.(.}.+X+X{._.(.(.(.(.oX+XoX(.(._._._._.=X}.{.(.(.(.{.}.$X}.{._.(._.{.OX}.=X}.}.{.{.(.{.}.}.{.(.(.(.(.(.",
"}.{.(.(.{._.{.{.=X{.(.(.(.{.{.}.+X{._.(._._._.oX+XoX_.(._._._.'.=X}.{.{.(.(.{.{.$X}.}._.(.(._.}.}.}.}.{.{.{.}.}.=X}.{.(.(.(.{.(.",
"}.}.{.}.{.{.}.+X=X{.{.{.{.{.}.$X*XoX{.{.{.{.{.+X@X+X{.}.}.}.}.}.<XOX{.{.}.{.{.}.-X}.}.{.{.{.{.oX=X}.}.}.}.}.}.}.-X-X}.{.{.}.}.}.",
"+XOX}.+X}.}.+X*X<X}.}.}.+X}.}.-X-X@X}.}.+X#X}.=X=X@XOXoXoXOXoXOX<X#X}.}.}.@X}.#X-X+X}.}.}.+X}.@X=X=X}.}.}.}.}.}.<X-X}.}.}.+X}.+X",
"+X+X}.}.+X}.}.$X<X}.+X}.+X+X}.=X=X@X}.}.}.}.}.*X*X@XOXoXOXoXoXOX<X=X}.}.@X}.}.}.-X#X}.}.+X}.}.$X=X=X=X}.}.}.}.=X-X-X}.}.#X}.}.+X",
"}.}.}.{.{.{.}.+X=X}.}.(.{.{.(.@X#X}.}.{.{.{.}.}.OXOX'._.(._.'.}.-X}.{.(.{.{.}.}.-X}.{.{.}.{.}.}.=X}.}.}.(.(.(.}.$X$X}.{.(.{.}.}.",
"}.}.}.}.(.}.}.}.=X{.(.{.{.{.}.}.#X}.{.{.{.{.}.}.OXB.B.A.)._.'.}.<X}.(.{.{.{.{.}.-X}.(.{.{.{.{.}.}.}.{.}.{.(.(.}.$X@X}.{.(.{.{.}.",
"}.(.{.(.(.(.{.}.=X}.(.(.{.(.}.+X X'.(.(.{.(.(.}.XX8.4.g.}.(.K.}.-X}.}.{.{.(.(.}.$X}.}.{.(.{.(.}.=X$X{.(.(.(.(.}.$X@X(.{.(.(.{.(.",
"}.}.(.(.(.{.}.}.=X{.}.(.(.(.{.+X+XXX{.(.(.{.{.}.OXq.1.g.(.l./.D.=X}.{.{.(.(.{.}.*X}.{.{.(.{.(.}.$X}.(.(.{.(.(.}.$X}.(.(.(.(.(.{.",
"}.}.(.(.(.{.{.}.*X{.(.(.(.(.{.}.{.{._.(././.{.}.}.<.2.C.'.Q.K.[.+X[./.(.(.(.{.}.$X}.(.(.(.(.}.}.}.$X}.{.(.(.(.{.@X+X(.(.(.(.(.(.",
"}.}.(.(.(.(.{.}.*X(.(.(.(.(.{.OX*X}.).C.2.-.S.}.OX-.5.(.(.(.(.(.-XW.F.(.(.{.{.}.@X}.(.(.(.{.{.}.$X}.{.{.(.(.(.(.$XOX}.(.(.(.(.(.",
"@X+X}.+X+XOXOX$X<XOXOXOX+XOX+X=X-X+X{.F.e.<.2.g.XX-.6.$XOXOXOX+X<XOXOXOXOXOX{.$X-X+X{.#X+X{.+X#X=X-X+X}.}.@X$X}.-X=X@X+X}.OXOX#X",
"$X+X+X+XOX}.OX$X<XOXOXOX}.}.OX=X-X#X#X/.d.8.-.=.5.&.  7.h.a.j.j.].@XOX}.OXOXOX$X,X#X+X{.+X+X}.+X=X-X}.}.#X@X}.}.-X-X}.}.+XOX#X}.",
"}.{.{.{.}.(.}.$X=X{.}.{.(.{.}.@X$X}./.f.w.1.x.<.&.<.<.    *.w.w.h.}.}.{.}.XX{.{.*X XS.C.}.{.{.}.+X+X(.{.}.{.(.}.#X#X}.}.{.(.{.{.",
"}.{.{.{.(.}.}.}.-X(.(.{.{.(.{.$X$X!...I Y Y U 8 . 1.w.:.<.1.;.5 #X{.}.{.Q.7.k.W.+X~.s.s.Q.{.(.}.OX+X{.{.{.{.}.}.#X#X}.{.(.{.{.{.",
"}.}.{.(.(.(.}.}.-X{.(.(.(.{.}.}.+XJ.K Y.P.M.b.P 8 1.i.z.=.t.p.k J.oXJ.V.B.8.y.d.XXZ.z.l./.{.}.}.@X+X{.{.(.(.(.}.$X@X(.{.(.(.(.{.",
"}.}.(.(.(.(.}.}.=X{.{.(.(.(.{.+XoX! v.P.%X&XR.M.{ 9.u.t.I 7 v x x c N E p.1.2.*.;.2.C.[.(.(.{.}.}.$X{.(.(.(.(.}.$X}.(.(.(.(.(.{.",
"}.{.{.(.(.(.(.}.=X(.(.(.(.(.(.+XJ.D H U.3X4X.XU.} ! 9.q.v x x x x n H ..[ 6.,.&.%.&.S.(.(.(.{.}.$X}.(.(.(.(.(.}.@X@X(.(.(.(.(.(.",
"}.}.(.(.(.(.(.}.=X}.(.(.(.(.(.}.n.K ' T.3X3X|. Xv.Z b 6 Z Z x x A H m..X.X..U -.%.3.,.f.(.(.{.}.OX}.(.(.{.(.(.}.@X+X{.(.(.(.(.(.",
"#X#X#X#X@X@X@X=X2X#X#X#X@X#X*X-Xn.L N.1X`.] ..b.P x C C Z x k g F |  X;X XT.T t.=.>.w.x.Z.(.$X=X-X-X}.=X}.}.=X=X<X<X$X}.=X=X$X$X",
"OXoXoXoXoXoXoX+X-XoXoXoXoXoXoX$Xn.K m.>XU.} P P G F n f Z x g X S | E.L.1XM.T c.0.I >.u.s.l.}.}.*X$X}.}.}.}.}.}.=X$X}.}.}.}.}.{.",
"oX}._._.(._.'.OX-X_._._._._.'.@X$.K L L P L J G F x + @ x Z x h C H [ I.R.v.Q >.7 k v c L.{.}.}.}.$X}.}.{.{.{.}.$X=X}.}.{.{.}.}.",
"oX}._._._._.'.OX-X{._._._._._.+X$.G A A C A A A F x h x x x x x C N | b. .F C b B x k f !.}.}.}.*X}.}.}.(.(.(.}.$X}.}.}.(.{.{.}.",
"oX'._._._._._.OX-X_._._.(._._.@X^.B A Z $ Z Z x x x x x x Z x l M g J K F k k x x x l 1 !.}.}.}.}.*X{.{.{.(.(.}.=X}.{.(.(.{.(.{.",
"oX'._.(.(._._.oX-X_.(.(.(.(._.+XoXN V V M V V k f x x x l j * & @ M j j l @ g x x k & ! !.}.}.}.*X}.}.}.(.(.(.{.$X}.(.{.(.(.(.(.",
"oX_.(.(.(.(.(.oX=X(.(.(.(._.(.+XOXn.m 3 3 3 m $ o l l z @ * - - # % @ * 3 * j m 3 X 4 R (.(.}.}.}.}.}.}.(.(.(.{.$X}.(.(.(.{.(.(.",
"oX}.}.}.}._.oX+X-XoX_.oX_.oX{.@X#X^.^ < ; % & % * & & % O , i r , = 2 & & * 2 2 0 u @._.}.}.}.}.-X$X}.}.{.{.{.{.-X-X{.{.{.}.}.}.",
"#X@X@X@X+X@X@X$X,X@X@X@X@X+X+X=X-X#X#.: ; O = = ; ; ; : 0 a u w 9 - ; = * @ : q a +./.=X}.}.}.=X<X<X}.}.-X}.}.}.-X-X}.}.$X}.=X}.",
"OX}.}.}.{._.}.OX-X}.{._.}.'.oX@X$XXX~.~ : - > > : 9 9 y d ) X.` y 9 9 > : 0 t d @._.}.}.}.}.}.=X}.}.}.}.}.}.}.}.$X$X{.{.}.}.}.}.",
"OX}._.'._.'.{.OX-X'.'._._.'.'.@X$XoX'.^.~ > > 9 e p ` _ X.E.(.G./ ` ` d ` W ( L.OX}.}.}.}.}.}.}.=X}.{.{.}.}.(.}.$X$X}.{.}.}.}.}.",
"OX'._._._._._.OX:X_._._._._.'.@X$XoX'.(.).o.t s r._ O.H.(.(.(.'.>XR @.O.R (.).}.=X}.}.}.}.}.}.}.}.=X}.}.}.}.(.}.$X$X}.{.}.}.}.}.",
"OX}._._._._.'.OX-X_._._.)._.'.@X@X}.!.!.).!.H./ ) H./.(._._._.'.-X}.(.{.(.(.{.}.=XoX).(.(.}.}.}.=X}.}.}.(.(.{.}.=X}.}.(.{.{.(.{.",
"oX'.(.(.(._.(.oX-X_._._.(._.'.OX@X'.^.!.(.(.).!.(.OX).(.(._._.'.-X}.(.{.(.(.{.{.$X'.'.(.(.(.}.}.}.=X}.}.{.(.(.{.}.}.(.(.(.(.(.(.",
"'._.(.(.(.(._.oX=X_._._.(.(._.OX+X'.'.(.(.(.(.}.OXOX_.(.(.(._._.-X}.{.{.(.(.(.{.$X'.oXXX(.(.(.}.}.}.}.}.(.(.}.}.-X}.{.(.(.(.(.{.",
"oX'.(.(.(.(._.oX=X(.(.(.(.(._.OX@X{.(.(.(.(._.OXOXoX_.(.(.(._._.=X}.{.{.(.(.(.{.$XoX'._.(.(.(.}.$X}.(.(.(.(.{.}.=X=X(.(.(.(.(.(.",
"+XoXoXoXoX{.oX@X:X{.oX{.oX{.oX$X$XOXoXoX{.oXoX+X#X@X{.{.}.oX{.oX<X}.}.}.}.}.}.}.:X}.}.}.}.}.}.}.=X$X}.}.}.}.}.}.-X$X}.}.}.}.}.}.",
"$X$X@X@X@X@X#X=X2X$X@X@X+X#X#X:X:X$X+X#X#X+X$X=X-X-X#X$X$X$X#X$X<X=X=X}.*X$X=X=X<X-X}.}.$X-X-X}.-X-X}.$X$X}.$X$X,X-X=X}.$X#X*X*X",
"OX{._._._._.'.OX-X'.'.'._._._.@X#XoX_._._._._.+X+X+X_._._._._.}.<X}.{.(.}.}.{.}.-X}.{.{.}.}.}.}.$X$X}.}.}.(.(.}.#X$X}.{.{.{.}.}.",
"oX}._._._._.'.OX-X{.'._._._.'.+X#XoX_._._._.(.oX+X+X_._._._._.{.<X}.{.(.{.{.}.}.-X}.{.{.{.{.{.}.}.}.}.}.(.(.}.}.$X+X{.{.(.{.{.}.",
"oX}._._.(._._.OX-X_._._._._._.+X@X{._._._._._.oX+XoX_._._._._._.<X}.}.}.}.(.(.}.$X}.}.{.{.(.(.{.=X}.{.(.(.(.(.}.=X}.(.{.{.(.{.(.",
"oX_._._.(._._.oX=X_._.(.(._._.+X@XoX_.(._._._.oX+XOX_.(._.(._._.=X}.{.}.(.(.(.}.$X}.{.{.(.(.{.{.$X$X(.{.{.(.(.}.=X}.(.(.(.(.(.{.",
"}._._.(.(.(._.oX=X_._._.(._._.OX+X_._.(.(.(._.oXOXoX_.(.(.(.(._.=X}.(.(.(.(.}.}.}.{.{.(.{.{.}.}.}.}.}.(.(.(.(.{.#X}.(.(.(.(.(.(.",
"}.'._.(.(.(._.oX-X_.(.(.(.(._.OX+X{.(.(._.(.(.oX+XoX_.(.(.(.(._.-X}.(.(.{.{.}.}.$X{.(.(.{.}.}.}.$X$X}.{.(.(.(.(.$X$X(.(.(.(.(.{.",
"+X+XOXOXOXoXOX$X:XOXOXOXOXoXOX=X-X+XOXOXoXOXoX#X=X$XoX+X+XoXOX+X<X+XOXoXOXoX+X$X<X}.$X}.$X}.}.=X=X=X}.}.}.=X}.}.-X-X}.$X}.#X}.*X",
"+X+XOXOXOXOXOX@X2XOXOXOXOXOX+X=X=X#XOXOXOXOX+X#X=X$X+XoXoX+XoX}.,X#XOX}.OXOXoX$X<X}.}.=X=X}.}.*X=X<X}.}.$X}.}.}.-X=X}.}.#X}.*X}.",
"OX}.{.'.{.'._.OX-X}.{.'._.'._.+X$X}.{.{.}._._.OX#X+X}.}.}.}.}.}.-X+X}.'.'.'.}.oX-X}.}.}.}.}.{.}.}.=X{.}.}.}.}.}.$X$X}.{.}.}.}.}.",
"oX{._._._._._.OX=X'._._._._.{.+X$X}._.(._._._.oX+XOX_._._._._.'.-X}.{.{._.{.{.oX}.}.{.(.}.}.{.}.=X}.{.}.}.}.(.}.$X#X}.{.{.{.{.}.",
"oX{.'.(._._._.OX:X_._.(._._._.+X#X{._.{._._._.OX+XOX_._.{.(.{.'.-X}._._.(.(._.}.=X}.}.{.{.{.}.}.}.=X}.}.{.(.(.{.=X}.(.{.{.(.{.(.",
"}.'._.(.(._._.OX=X_.(.(.(._._.OX#X{._.(._.(._.oXOXOX_.(.(.(.(.'.-X}._._.(._.{.}.=X}.}.{.{.}.}.}.=X}.{.{.(.(.(.{.$X}.(.(.(.(.(.{.",
"{.'.(.(.(._._.oX=X'.(.(._._._.OX+X{.(._.(.(._.oX+XoX_.(.(.(.(.}.-X}._.(.(.(.{.}.$X}.{.(.{.(.}.}.}.}.{.(.(.(.}.}.}.=X(.(.(.(.(.(.",
"}._._.(._._._.oX=X_.(._.(._._.OXOX{._.(._._.(.oXOXoX_.(.(.(._.}.-X}._._.(._.{.}.}.{.(.(.{.(.}.}.}.}.{.(.{.{.}.}.=X}.{.(.(.(.(.{."
};
