/* XPM */
static char *result[] = {
/* columns rows colors chars-per-pixel */
"64 64 20 1 ",
"  c #CBA779",
". c #CEAA7D",
"X c #D2AD7E",
"o c #D5B07F",
"O c #CEAB80",
"+ c #D2AE81",
"@ c #D5B284",
"# c #D9B587",
"$ c #DDB887",
"% c #D6B488",
"& c #D9B68A",
"* c #DCB88C",
"= c #DEBC90",
"- c #E0BA8C",
"; c #E1BD91",
": c #E6C396",
"> c #E7C499",
", c #E9C699",
"< c #EDCA9D",
"1 c #F0CCA1",
/* pixels */
"%%&%%%%+&%++#&&&*%@@@%@@@@%%#@%%%&%&&&%%&%%&&*&+=*&%&&&&%&&&&=&%",
"%%%%%&+O%%+@@%&&&%@@@%%@+@%%%%%%&%%%%&@%%%%&&*%@&*&*&&=&&&&&&=&%",
"%%%%&&%O%#%%#%%+%%@@%&&%O+%%&%%%%%%%&%&%%%%#&*&%%%*====&**&&=&%%",
"%%&&&&%O%%%+#%%%&%%&%&&*++%#%+@%@%%%%&&&%%%%&&&&%%=%&&&=&&&=*=&%",
"%%=%%=%%%#%#@#%%&%%%&*&%+%%#@@@%%%%%%%&%%%@@%&&&=%&&&=&&&&%&*&&&",
"%=%%%=%%%%%%#%%%%%%@%$&&%@&&&@%@%%%%%&%%%@@%%**&&&&=&==&&&&-=%%%",
"&&%==%&=&%%##&%%&&%%%$&&@@@%%@@%%%&%%&%%@&%%%&:>&&=&&==&&&%;=&&&",
"=&%=&%%%&&&#+*&#&&%@%&&&%@+&%+@&%%%%%&%%%%%%%#><=&=&==&&*&%===&&",
"**&*&&#@&&*@+&%%%%%@@*&$@@@@%O@%%%%%%&&&&&&&##&*&==%%;=&%&%==&&%",
"**&&&&@+&&&@+%%%%%%@%**&@+@%%OO%%&%@%&&&&%&@#&=:==&&%=&&&&&=****",
"**%++&@+&##++%##%@+&&*&&%@@%+ +%&#&%%%%%%%@@@&>1%%&%&=&&&&&;;&&&",
"**$@@&++@#&@+@##%@+%&$&&+++@@OO%%%%%%%%%%%@%&&>1&&&=&&&%&&%&**&&",
"*&%%@&@+@&$++%%&@@+&&&&&O++@@O+%&%#%@%%%%%@&&&:<&&=&&=%&*%%**&&*",
"&&&+@&@+@#*++%##%%@%&%&#+@+%%O%%%&#++%%%#&&#&&&&=&=%%=&&**&&&&&%",
"&&%@@&@+X@$@+#&&@@%&*$##++@@%+@%&%&@@%%@######&&%==%&&*&%*&*%*&&",
"&&%+@$#@X@&@+$&$@@@&**&%+++%@+%%%*&@+%%@&%###@%&&&=%%&&&*%&%*%&*",
"&%+%%##@.@&@O%&$%%@&*$&&++@%%O+%%&&@@&%%&%+#%@&&**&&%&&&&&&&&%&#",
"&&#%%&@@@%&@@%&&@@@&*$#&+@+@%O@%%&&%%%%##@+@%%&-*&&&&%&&%&#&&&&&",
"-&%%%$#+@%#@@%%&@@.&$&&#+++%%O+@%&&%%%&&++@#%@&&**&&%&%&&##&**&%",
"*&###+##@#&@@@%%@@@&*#$$++@#@++@%&&@+%%%@@@>;+%&&*&&%%&&%&#%%&&&",
"*&###+@#@##@@@@%@%+&&&&-+@@%%+@@%%@++%%%@++,,+%&&**%%%&&@%&%%&&&",
"&%@#@X++@%*@@X@%+++&-&$#@@@%@OO++%%++&&&+++,,%%&*&*%%*&&&&#%%&&&",
"&&#%@@@#o%*@@.%%+XX%%-##@@+%@+O++@%@+%%%+%+;-+%%&&&&%#&&&&@%%&&&",
"$&##%@##o#-%@O@#XX.#&&$#&@+@@+++@%%+%%%%%%&%&%&-&&*%%@#&&&%%&&&-",
"&%&@##&%o@&oX@%#+++#&&-$#@XX++OO++%++%%%.@&&%+%&&&&%%%&-&@o@@&&&",
"&&&%@##&.@&@o@@#++++#&$$#+.XO@+O+@++@%%%+@&%%@&&&&%&&%--&#+@@-&-",
"%&&@@@##.o#%@@##++.%%%#$#@+++%+O%+++@%@+&&&%%&&&&&&&&@&&-#@++-&&",
"#&&@%@@#X@#@@o@@%+O+%%#&%@+++@+.%%+%@%%%@%&++&&--&%&&&&-&&@@%&&&",
"#%#%@@@@.@#%@o@@%+O+%%%%##+@@@O.%%++%&%%@@%@+%&-&&&&&%&&-&@@%-%%",
"@@@@#@@@o@##@X@#%+O%++@@$#@@@%+ %%%%%&&#%%%%@%&&-&&%%%&-@@@@%&-&",
"%@@##@@@o@#@@@@#++++@++#&#@++@O %+@@@&##@%&@@@&&-&&%%&&-&@@@+&&&",
"@@@#@o##@%##@@%#%+O++++&##@++@+.%@++@###++%%@%%%-&&%%&--&&#++@&-",
"#%@##X@@#=<#@@@@%%O+@.%&##%++...++++@+#++@@++%&&*=*%&%&-&#&++*&&",
"##@##@@@$*:#@+@@%+++XX@%#%%@++..@+++++%&@@@+@@&&***&%%&-&##+@*&&",
"#####%@#Xo$@X@++#@++..@%##%@++..%+O++.+*%%@@@%&*&-;%&%&*&#+@&$&$",
"###@$@@@X@%XX+++@@X...+%*#%++X.+%+++++#%&&@+o%&*-*&%%&&&&#+@@&&#",
"##%@%@@XX@$.X@++%o....+@*##X@XX+%+X@+++&&&@+@#&**&%%%%&=&&@@@&&$",
"##@@+$@X@%#.X%@X%@...+oX##%+.@X.#++@++@&#&%++#&%&&%&%%&&%@@X@&&&",
"@$@@@%@@o@#XX%@+$@X..XXX$#%X.%..#@+++X##@%@@@##&-&#&&%&&%%@@#$&&",
"$$@%%$@@X@#@@%@+#@X..@XX$##.X%X.#@+++X+#@@@@@##&-&@&%%&*%%@%@&&&",
"$#@%@.@%oo%oo%oX@oX .@X.$@@X@@..&%++@@@@@%@@@##@%&&%%%&*##@@@&#%",
"*#o%$o@@X@%@o#@X@@. .XX.$$@.X%@X%@++@@@@#@%@@#@@%&&%%%&=#@@++&#%",
"*#X#%@@@oo#@@@@o%X ..+X+$%@XX*@X+++++@@o#&#%@$@+&$&%%%&*@@@.o&##",
"$$@%@o@@oo#@@@@X#@.XX+++*#@..#oX++++o@@##%@o@$#@$%&%%+&&%@@@@#&#",
"$$@%%@@@oo#@@%+X%@.XX+@+$$@.X@XX+++++@@###%@@##&#%&%%@%&@@@%%&&#",
"%@X@@#@oo##oX@XX@+XXX@@####X.@oX.+++++@@@@%######$&%%%&$@oX%%#&%",
"$%o@@@@oo@@oX%oooXX+oo##$#$X.@XXO+++@+@@@@%%##%#-&&%%&##@@o@%###",
"*%@@@$@o@ooXX%@@XX.++X@$@%@ .XXX+++++++@@@%%%@@#--&&&&#%@@o@%&##",
"$@Xo+%@X#@XXX@@@@XX@XX#$@@@oXXX..X@@#@#$o@@###:<$##&&&@@@@%#@###",
"$%o+@#oX#@XXX@@oo@Xo@X@$+@%XXXX.O+@@@o#$@@@###=,#$%&&#@@%%+@&#&&",
"$%@@o#@X##oXX+@@oo+X.o@#X@#XXX..++@@@X#$Xo##@##&$&&&&&%@%@X@%#&&",
"$@@@%@@o$oXX+@@@XX@@%##$@%#X.XXX++@+@o##@%####&&@@&##&@+%++@%@%%",
"$oo@%%@@$o.X@@@@X@@%@@$$@#$X.XXX@@@@@X@#####@##&##&##&+X@@+@@@&&",
"oX.o@%XX$#Xo+@@@XXX@@@@%##=XX@@X@@@@@X@#%#$#@@#&$$$$#%@@+++%&%#&",
"@oo@%%oX##X@@@@@oX.@#@oo%@$XX@oo%@@@@o@#o@#%@%#&#&&&&@@@@@+@%#&&",
"#@X$$@@X#oX#%X@#%X.@$@XX@$$XX@oX@@++@o@%o@%@%###$#&&&@@o#@+@%#&&",
"@@o@@@oX$oX@%@%#@@X%$.XX##$o+@oX%%@o+@@%Xo#oX%%%###*&@@@&%@@+&&&",
"@@+@@@@o##X@@@#$$@X@$ X.###@@@oo%%@@@%@#o@#@@%&&&#%&&%#@&%@@@&*&",
"o+o@##oo#oo@%@#$#@XoX   @$$@@.Xo###@@#@@@@#$###%#%@%&&##%%+@@&&=",
"o+@@@$@o##o@#%#$%@X@X.XX@%*@@@oX##o@@#%%@#&@@&##@%%&&#%%%%@%#&&=",
"o+@@@$@@%@o%@@##$@XoX XX@$*@@@oX%@X@@###@#*@@###@##&&%%@%%%##%**",
"o+@@@#@@#@@%#%##@$XXXXXX@#$@o@XX@@Xo@###@#$@@@**@@@&*&%%%@@##@%*",
"o@o@@$@@##@@%@#%#@XXo@oo@@$@o%oX%@+@@#%@#@#@@@#*@%@&*&%@@@@@%#&%",
"@+X+#$oo##@@@o##@@XXX@@@o@$oX@@X$%@@@%%@$#@$@@##@%#**$%@@@%%@&%%"
};
